<svg width="124" height="93" viewBox="0 0 124 93" fill="none" xmlns="http://www.w3.org/2000/svg">
<path d="M64.0149 5.39825C65.5553 3.86265 67.6443 3 69.8225 3C72.0007 3 74.0896 3.86265 75.6301 5.39825L112.595 42.2583C114.135 43.7944 115 45.8775 115 48.0495C115 50.2214 114.135 52.3045 112.595 53.8406L75.6301 90.7007C74.0808 92.1927 72.0059 93.0184 69.8521 92.9997C67.6983 92.981 65.638 92.1196 64.115 90.6009C62.5919 89.0822 61.7281 87.0277 61.7093 84.88C61.6906 82.7324 62.5186 80.6633 64.0149 79.1184L86.2513 56.2406H8.21441C6.03581 56.2406 3.94645 55.3776 2.40595 53.8415C0.865444 52.3053 0 50.2219 0 48.0495C0 45.877 0.865444 43.7936 2.40595 42.2575C3.94645 40.7213 6.03581 39.8583 8.21441 39.8583H86.2513L64.0149 16.9805C62.4749 15.4444 61.6098 13.3614 61.6098 11.1894C61.6098 9.01738 62.4749 6.93431 64.0149 5.39825Z" fill="#00A09F"/>
<path d="M83.5711 3.46057L120.536 40.3203C120.536 40.3204 120.536 40.3204 120.536 40.3205C121.794 41.5756 122.5 43.2767 122.5 45.0495C122.5 46.8222 121.794 48.5233 120.536 49.7784C120.536 49.7785 120.536 49.7785 120.536 49.7786L83.5806 86.6289C82.3155 87.8428 80.6227 88.515 78.8651 88.4997C77.1032 88.4845 75.4187 87.7798 74.1741 86.5387C72.9297 85.2978 72.2246 83.62 72.2093 81.867C72.194 80.114 72.8697 78.4245 74.0921 77.1622C74.0922 77.1622 74.0923 77.1621 74.0924 77.162L96.3269 54.2861L98.8011 51.7406H95.2513H17.2144C15.4323 51.7406 13.724 51.0346 12.4651 49.7793C11.2064 48.5241 10.5 46.8227 10.5 45.0495C10.5 43.2762 11.2064 41.5748 12.4651 40.3196C13.724 39.0643 15.4323 38.3583 17.2144 38.3583H95.2513H98.8011L96.3269 35.8129L74.0905 12.935L74.0824 12.9267L74.0742 12.9185C72.8159 11.6634 72.1098 9.96225 72.1098 8.18938C72.1098 6.41666 72.8158 4.71565 74.0739 3.46057C75.3327 2.20571 77.0407 1.5 78.8225 1.5C80.6042 1.5 82.3121 2.20565 83.5709 3.46041C83.571 3.46047 83.571 3.46052 83.5711 3.46057Z" stroke="black" stroke-width="3"/>
</svg>
