<?xml version="1.0" encoding="UTF-8"?>
<svg id="Calque_1" data-name="Calque 1" xmlns="http://www.w3.org/2000/svg" viewBox="0 0 695 378">
  <defs>
    <style>
      .cls-1 {
        fill: #00a09f;
      }

      .cls-2 {
        fill: none;
        stroke: #000;
        stroke-linecap: round;
        stroke-linejoin: round;
        stroke-width: 2px;
      }
    </style>
  </defs>
  <path class="cls-1" d="M46.1,348.53V181.71c84.69,0,153.33-68.64,153.33-153.33h468.57V348.53H46.1Z"/>
  <path class="cls-2" d="M26.48,335.04V168.22c84.69,0,153.33-68.64,153.33-153.33h468.57V335.04H26.48Z"/>
  <g>
    <path d="M79.7,202.8h4.35v22.55c0,8.95-4.4,11.7-10.2,11.7-1.6,0-3.55-.35-4.65-.8l.65-3.55c.9,.35,2.2,.65,3.65,.65,3.9,0,6.2-1.75,6.2-8.35v-22.2Z"/>
    <path d="M93.6,225.2c.1,5.95,3.9,8.4,8.3,8.4,3.15,0,5.05-.55,6.7-1.25l.75,3.15c-1.55,.7-4.2,1.5-8.05,1.5-7.45,0-11.9-4.9-11.9-12.2s4.3-13.05,11.35-13.05c7.9,0,10,6.95,10,11.4,0,.9-.1,1.6-.15,2.05h-17Zm12.9-3.15c.05-2.8-1.15-7.15-6.1-7.15-4.45,0-6.4,4.1-6.75,7.15h12.85Z"/>
    <path d="M137.4,201h4.4v35.5h-4.4v-35.5Z"/>
    <path d="M151.65,225.2c.1,5.95,3.9,8.4,8.3,8.4,3.15,0,5.05-.55,6.7-1.25l.75,3.15c-1.55,.7-4.2,1.5-8.05,1.5-7.45,0-11.9-4.9-11.9-12.2s4.3-13.05,11.35-13.05c7.9,0,10,6.95,10,11.4,0,.9-.1,1.6-.15,2.05h-17Zm12.9-3.15c.05-2.8-1.15-7.15-6.1-7.15-4.45,0-6.4,4.1-6.75,7.15h12.85Z"/>
    <path d="M173.65,232c1.3,.85,3.6,1.75,5.8,1.75,3.2,0,4.7-1.6,4.7-3.6,0-2.1-1.25-3.25-4.5-4.45-4.35-1.55-6.4-3.95-6.4-6.85,0-3.9,3.15-7.1,8.35-7.1,2.45,0,4.6,.7,5.95,1.5l-1.1,3.2c-.95-.6-2.7-1.4-4.95-1.4-2.6,0-4.05,1.5-4.05,3.3,0,2,1.45,2.9,4.6,4.1,4.2,1.6,6.35,3.7,6.35,7.3,0,4.25-3.3,7.25-9.05,7.25-2.65,0-5.1-.65-6.8-1.65l1.1-3.35Z"/>
    <path d="M206.35,212.3l4.75,13.6c.8,2.2,1.45,4.2,1.95,6.2h.15c.55-2,1.25-4,2.05-6.2l4.7-13.6h4.6l-9.5,24.2h-4.2l-9.2-24.2h4.7Z"/>
    <path d="M230.65,225.2c.1,5.95,3.9,8.4,8.3,8.4,3.15,0,5.05-.55,6.7-1.25l.75,3.15c-1.55,.7-4.2,1.5-8.05,1.5-7.45,0-11.9-4.9-11.9-12.2s4.3-13.05,11.35-13.05c7.9,0,10,6.95,10,11.4,0,.9-.1,1.6-.15,2.05h-17Zm12.9-3.15c.05-2.8-1.15-7.15-6.1-7.15-4.45,0-6.4,4.1-6.75,7.15h12.85Z"/>
    <path d="M253.25,218.85c0-2.5-.05-4.55-.2-6.55h3.9l.25,4h.1c1.2-2.3,4-4.55,8-4.55,3.35,0,8.55,2,8.55,10.3v14.45h-4.4v-13.95c0-3.9-1.45-7.15-5.6-7.15-2.9,0-5.15,2.05-5.9,4.5-.2,.55-.3,1.3-.3,2.05v14.55h-4.4v-17.65Z"/>
    <path d="M301.9,201v29.25c0,2.15,.05,4.6,.2,6.25h-3.95l-.2-4.2h-.1c-1.35,2.7-4.3,4.75-8.25,4.75-5.85,0-10.35-4.95-10.35-12.3-.05-8.05,4.95-13,10.85-13,3.7,0,6.2,1.75,7.3,3.7h.1v-14.45h4.4Zm-4.4,21.15c0-.55-.05-1.3-.2-1.85-.65-2.8-3.05-5.1-6.35-5.1-4.55,0-7.25,4-7.25,9.35,0,4.9,2.4,8.95,7.15,8.95,2.95,0,5.65-1.95,6.45-5.25,.15-.6,.2-1.2,.2-1.9v-4.2Z"/>
    <path d="M308.6,232c1.3,.85,3.6,1.75,5.8,1.75,3.2,0,4.7-1.6,4.7-3.6,0-2.1-1.25-3.25-4.5-4.45-4.35-1.55-6.4-3.95-6.4-6.85,0-3.9,3.15-7.1,8.35-7.1,2.45,0,4.6,.7,5.95,1.5l-1.1,3.2c-.95-.6-2.7-1.4-4.95-1.4-2.6,0-4.05,1.5-4.05,3.3,0,2,1.45,2.9,4.6,4.1,4.2,1.6,6.35,3.7,6.35,7.3,0,4.25-3.3,7.25-9.05,7.25-2.65,0-5.1-.65-6.8-1.65l1.1-3.35Z"/>
    <path d="M353,236.5l-.35-3.05h-.15c-1.35,1.9-3.95,3.6-7.4,3.6-4.9,0-7.4-3.45-7.4-6.95,0-5.85,5.2-9.05,14.55-9v-.5c0-2-.55-5.6-5.5-5.6-2.25,0-4.6,.7-6.3,1.8l-1-2.9c2-1.3,4.9-2.15,7.95-2.15,7.4,0,9.2,5.05,9.2,9.9v9.05c0,2.1,.1,4.15,.4,5.8h-4Zm-7.45-34.65l4.35,7.15h-3.1l-6.1-7.15h4.85Zm6.8,22.3c-4.8-.1-10.25,.75-10.25,5.45,0,2.85,1.9,4.2,4.15,4.2,3.15,0,5.15-2,5.85-4.05,.15-.45,.25-.95,.25-1.4v-4.2Z"/>
    <path d="M395.2,201v29.25c0,2.15,.05,4.6,.2,6.25h-3.95l-.2-4.2h-.1c-1.35,2.7-4.3,4.75-8.25,4.75-5.85,0-10.35-4.95-10.35-12.3-.05-8.05,4.95-13,10.85-13,3.7,0,6.2,1.75,7.3,3.7h.1v-14.45h4.4Zm-4.4,21.15c0-.55-.05-1.3-.2-1.85-.65-2.8-3.05-5.1-6.35-5.1-4.55,0-7.25,4-7.25,9.35,0,4.9,2.4,8.95,7.15,8.95,2.95,0,5.65-1.95,6.45-5.25,.15-.6,.2-1.2,.2-1.9v-4.2Z"/>
    <path d="M404.95,225.2c.1,5.95,3.9,8.4,8.3,8.4,3.15,0,5.05-.55,6.7-1.25l.75,3.15c-1.55,.7-4.2,1.5-8.05,1.5-7.45,0-11.9-4.9-11.9-12.2s4.3-13.05,11.35-13.05c7.9,0,10,6.95,10,11.4,0,.9-.1,1.6-.15,2.05h-17Zm12.9-3.15c.05-2.8-1.15-7.15-6.1-7.15-4.45,0-6.4,4.1-6.75,7.15h12.85Z"/>
    <path d="M426.95,232c1.3,.85,3.6,1.75,5.8,1.75,3.2,0,4.7-1.6,4.7-3.6,0-2.1-1.25-3.25-4.5-4.45-4.35-1.55-6.4-3.95-6.4-6.85,0-3.9,3.15-7.1,8.35-7.1,2.45,0,4.6,.7,5.95,1.5l-1.1,3.2c-.95-.6-2.7-1.4-4.95-1.4-2.6,0-4.05,1.5-4.05,3.3,0,2,1.45,2.9,4.6,4.1,4.2,1.6,6.35,3.7,6.35,7.3,0,4.25-3.3,7.25-9.05,7.25-2.65,0-5.1-.65-6.8-1.65l1.1-3.35Z"/>
    <path d="M457.35,232c1.3,.85,3.6,1.75,5.8,1.75,3.2,0,4.7-1.6,4.7-3.6,0-2.1-1.25-3.25-4.5-4.45-4.35-1.55-6.4-3.95-6.4-6.85,0-3.9,3.15-7.1,8.35-7.1,2.45,0,4.6,.7,5.95,1.5l-1.1,3.2c-.95-.6-2.7-1.4-4.95-1.4-2.6,0-4.05,1.5-4.05,3.3,0,2,1.45,2.9,4.6,4.1,4.2,1.6,6.35,3.7,6.35,7.3,0,4.25-3.3,7.25-9.05,7.25-2.65,0-5.1-.65-6.8-1.65l1.1-3.35Z"/>
    <path d="M480.2,225.2c.1,5.95,3.9,8.4,8.3,8.4,3.15,0,5.05-.55,6.7-1.25l.75,3.15c-1.55,.7-4.2,1.5-8.05,1.5-7.45,0-11.9-4.9-11.9-12.2s4.3-13.05,11.35-13.05c7.9,0,10,6.95,10,11.4,0,.9-.1,1.6-.15,2.05h-17Zm12.9-3.15c.05-2.8-1.15-7.15-6.1-7.15-4.45,0-6.4,4.1-6.75,7.15h12.85Z"/>
    <path d="M502.8,219.85c0-2.85-.05-5.3-.2-7.55h3.85l.15,4.75h.2c1.1-3.25,3.75-5.3,6.7-5.3,.5,0,.85,.05,1.25,.15v4.15c-.45-.1-.9-.15-1.5-.15-3.1,0-5.3,2.35-5.9,5.65-.1,.6-.2,1.3-.2,2.05v12.9h-4.35v-16.65Z"/>
    <path d="M522.1,212.3l4.75,13.6c.8,2.2,1.45,4.2,1.95,6.2h.15c.55-2,1.25-4,2.05-6.2l4.7-13.6h4.6l-9.5,24.2h-4.2l-9.2-24.2h4.7Z"/>
    <path d="M549.35,205.5c.05,1.5-1.05,2.7-2.8,2.7-1.55,0-2.65-1.2-2.65-2.7s1.15-2.75,2.75-2.75,2.7,1.2,2.7,2.75Zm-4.9,31v-24.2h4.4v24.2h-4.4Z"/>
    <path d="M573.4,235.6c-1.15,.6-3.7,1.4-6.95,1.4-7.3,0-12.05-4.95-12.05-12.35s5.1-12.85,13-12.85c2.6,0,4.9,.65,6.1,1.25l-1,3.4c-1.05-.6-2.7-1.15-5.1-1.15-5.55,0-8.55,4.1-8.55,9.15,0,5.6,3.6,9.05,8.4,9.05,2.5,0,4.15-.65,5.4-1.2l.75,3.3Z"/>
    <path d="M580.7,225.2c.1,5.95,3.9,8.4,8.3,8.4,3.15,0,5.05-.55,6.7-1.25l.75,3.15c-1.55,.7-4.2,1.5-8.05,1.5-7.45,0-11.9-4.9-11.9-12.2s4.3-13.05,11.35-13.05c7.9,0,10,6.95,10,11.4,0,.9-.1,1.6-.15,2.05h-17Zm12.9-3.15c.05-2.8-1.15-7.15-6.1-7.15-4.45,0-6.4,4.1-6.75,7.15h12.85Z"/>
    <path d="M602.69,232c1.3,.85,3.6,1.75,5.8,1.75,3.2,0,4.7-1.6,4.7-3.6,0-2.1-1.25-3.25-4.5-4.45-4.35-1.55-6.4-3.95-6.4-6.85,0-3.9,3.15-7.1,8.35-7.1,2.45,0,4.6,.7,5.95,1.5l-1.1,3.2c-.95-.6-2.7-1.4-4.95-1.4-2.6,0-4.05,1.5-4.05,3.3,0,2,1.45,2.9,4.6,4.1,4.2,1.6,6.35,3.7,6.35,7.3,0,4.25-3.3,7.25-9.05,7.25-2.65,0-5.1-.65-6.8-1.65l1.1-3.35Z"/>
    <path d="M93.55,261v29.25c0,2.15,.05,4.6,.2,6.25h-3.95l-.2-4.2h-.1c-1.35,2.7-4.3,4.75-8.25,4.75-5.85,0-10.35-4.95-10.35-12.3-.05-8.05,4.95-13,10.85-13,3.7,0,6.2,1.75,7.3,3.7h.1v-14.45h4.4Zm-4.4,21.15c0-.55-.05-1.3-.2-1.85-.65-2.8-3.05-5.1-6.35-5.1-4.55,0-7.25,4-7.25,9.35,0,4.9,2.4,8.95,7.15,8.95,2.95,0,5.65-1.95,6.45-5.25,.15-.6,.2-1.2,.2-1.9v-4.2Z"/>
    <path d="M103.3,285.2c.1,5.95,3.9,8.4,8.3,8.4,3.15,0,5.05-.55,6.7-1.25l.75,3.15c-1.55,.7-4.2,1.5-8.05,1.5-7.45,0-11.9-4.9-11.9-12.2s4.3-13.05,11.35-13.05c7.9,0,10,6.95,10,11.4,0,.9-.1,1.6-.15,2.05h-17Zm12.9-3.15c.05-2.8-1.15-7.15-6.1-7.15-4.45,0-6.4,4.1-6.75,7.15h12.85Z"/>
    <path d="M136.5,279.85c0-2.85-.05-5.3-.2-7.55h3.85l.15,4.75h.2c1.1-3.25,3.75-5.3,6.7-5.3,.5,0,.85,.05,1.25,.15v4.15c-.45-.1-.9-.15-1.5-.15-3.1,0-5.3,2.35-5.9,5.65-.1,.6-.2,1.3-.2,2.05v12.9h-4.35v-16.65Z"/>
    <path d="M154.8,285.2c.1,5.95,3.9,8.4,8.3,8.4,3.15,0,5.05-.55,6.7-1.25l.75,3.15c-1.55,.7-4.2,1.5-8.05,1.5-7.45,0-11.9-4.9-11.9-12.2s4.3-13.05,11.35-13.05c7.9,0,10,6.95,10,11.4,0,.9-.1,1.6-.15,2.05h-17Zm12.9-3.15c.05-2.8-1.15-7.15-6.1-7.15-4.45,0-6.4,4.1-6.75,7.15h12.85Z"/>
    <path d="M194.65,295.6c-1.15,.6-3.7,1.4-6.95,1.4-7.3,0-12.05-4.95-12.05-12.35s5.1-12.85,13-12.85c2.6,0,4.9,.65,6.1,1.25l-1,3.4c-1.05-.6-2.7-1.15-5.1-1.15-5.55,0-8.55,4.1-8.55,9.15,0,5.6,3.6,9.05,8.4,9.05,2.5,0,4.15-.65,5.4-1.2l.75,3.3Z"/>
    <path d="M221.4,284.2c0,8.95-6.2,12.85-12.05,12.85-6.55,0-11.6-4.8-11.6-12.45,0-8.1,5.3-12.85,12-12.85s11.65,5.05,11.65,12.45Zm-19.2,.25c0,5.3,3.05,9.3,7.35,9.3s7.35-3.95,7.35-9.4c0-4.1-2.05-9.3-7.25-9.3s-7.45,4.8-7.45,9.4Z"/>
    <path d="M226.95,278.85c0-2.5-.05-4.55-.2-6.55h3.9l.25,4h.1c1.2-2.3,4-4.55,8-4.55,3.35,0,8.55,2,8.55,10.3v14.45h-4.4v-13.95c0-3.9-1.45-7.15-5.6-7.15-2.9,0-5.15,2.05-5.9,4.5-.2,.55-.3,1.3-.3,2.05v14.55h-4.4v-17.65Z"/>
    <path d="M275.6,261v29.25c0,2.15,.05,4.6,.2,6.25h-3.95l-.2-4.2h-.1c-1.35,2.7-4.3,4.75-8.25,4.75-5.85,0-10.35-4.95-10.35-12.3-.05-8.05,4.95-13,10.85-13,3.7,0,6.2,1.75,7.3,3.7h.1v-14.45h4.4Zm-4.4,21.15c0-.55-.05-1.3-.2-1.85-.65-2.8-3.05-5.1-6.35-5.1-4.55,0-7.25,4-7.25,9.35,0,4.9,2.4,8.95,7.15,8.95,2.95,0,5.65-1.95,6.45-5.25,.15-.6,.2-1.2,.2-1.9v-4.2Z"/>
    <path d="M287.8,265.5c.05,1.5-1.05,2.7-2.8,2.7-1.55,0-2.65-1.2-2.65-2.7s1.15-2.75,2.75-2.75,2.7,1.2,2.7,2.75Zm-4.9,31v-24.2h4.4v24.2h-4.4Z"/>
    <path d="M299.9,265.35v6.95h6.3v3.35h-6.3v13.05c0,3,.85,4.7,3.3,4.7,1.15,0,2-.15,2.55-.3l.2,3.3c-.85,.35-2.2,.6-3.9,.6-2.05,0-3.7-.65-4.75-1.85-1.25-1.3-1.7-3.45-1.7-6.3v-13.2h-3.75v-3.35h3.75v-5.8l4.3-1.15Z"/>
    <path d="M316.05,265.5c.05,1.5-1.05,2.7-2.8,2.7-1.55,0-2.65-1.2-2.65-2.7s1.15-2.75,2.75-2.75,2.7,1.2,2.7,2.75Zm-4.9,31v-24.2h4.4v24.2h-4.4Z"/>
    <path d="M344.75,284.2c0,8.95-6.2,12.85-12.05,12.85-6.55,0-11.6-4.8-11.6-12.45,0-8.1,5.3-12.85,12-12.85s11.65,5.05,11.65,12.45Zm-19.2,.25c0,5.3,3.05,9.3,7.35,9.3s7.35-3.95,7.35-9.4c0-4.1-2.05-9.3-7.25-9.3s-7.45,4.8-7.45,9.4Z"/>
    <path d="M350.3,278.85c0-2.5-.05-4.55-.2-6.55h3.9l.25,4h.1c1.2-2.3,4-4.55,8-4.55,3.35,0,8.55,2,8.55,10.3v14.45h-4.4v-13.95c0-3.9-1.45-7.15-5.6-7.15-2.9,0-5.15,2.05-5.9,4.5-.2,.55-.3,1.3-.3,2.05v14.55h-4.4v-17.65Z"/>
    <path d="M378.05,278.85c0-2.5-.05-4.55-.2-6.55h3.9l.25,4h.1c1.2-2.3,4-4.55,8-4.55,3.35,0,8.55,2,8.55,10.3v14.45h-4.4v-13.95c0-3.9-1.45-7.15-5.6-7.15-2.9,0-5.15,2.05-5.9,4.5-.2,.55-.3,1.3-.3,2.05v14.55h-4.4v-17.65Z"/>
    <path d="M408.25,285.2c.1,5.95,3.9,8.4,8.3,8.4,3.15,0,5.05-.55,6.7-1.25l.75,3.15c-1.55,.7-4.2,1.5-8.05,1.5-7.45,0-11.9-4.9-11.9-12.2s4.3-13.05,11.35-13.05c7.9,0,10,6.95,10,11.4,0,.9-.1,1.6-.15,2.05h-17Zm12.9-3.15c.05-2.8-1.15-7.15-6.1-7.15-4.45,0-6.4,4.1-6.75,7.15h12.85Z"/>
    <path d="M430.85,278.85c0-2.5-.05-4.55-.2-6.55h3.85l.2,3.9h.15c1.35-2.3,3.6-4.45,7.6-4.45,3.3,0,5.8,2,6.85,4.85h.1c.75-1.35,1.7-2.4,2.7-3.15,1.45-1.1,3.05-1.7,5.35-1.7,3.2,0,7.95,2.1,7.95,10.5v14.25h-4.3v-13.7c0-4.65-1.7-7.45-5.25-7.45-2.5,0-4.45,1.85-5.2,4-.2,.6-.35,1.4-.35,2.2v14.95h-4.3v-14.5c0-3.85-1.7-6.65-5.05-6.65-2.75,0-4.75,2.2-5.45,4.4-.25,.65-.35,1.4-.35,2.15v14.6h-4.3v-17.65Z"/>
    <path d="M475,285.2c.1,5.95,3.9,8.4,8.3,8.4,3.15,0,5.05-.55,6.7-1.25l.75,3.15c-1.55,.7-4.2,1.5-8.05,1.5-7.45,0-11.9-4.9-11.9-12.2s4.3-13.05,11.35-13.05c7.9,0,10,6.95,10,11.4,0,.9-.1,1.6-.15,2.05h-17Zm12.9-3.15c.05-2.8-1.15-7.15-6.1-7.15-4.45,0-6.4,4.1-6.75,7.15h12.85Z"/>
    <path d="M497.6,278.85c0-2.5-.05-4.55-.2-6.55h3.9l.25,4h.1c1.2-2.3,4-4.55,8-4.55,3.35,0,8.55,2,8.55,10.3v14.45h-4.4v-13.95c0-3.9-1.45-7.15-5.6-7.15-2.9,0-5.15,2.05-5.9,4.5-.2,.55-.3,1.3-.3,2.05v14.55h-4.4v-17.65Z"/>
    <path d="M530.45,265.35v6.95h6.3v3.35h-6.3v13.05c0,3,.85,4.7,3.3,4.7,1.15,0,2-.15,2.55-.3l.2,3.3c-.85,.35-2.2,.6-3.9,.6-2.05,0-3.7-.65-4.75-1.85-1.25-1.3-1.7-3.45-1.7-6.3v-13.2h-3.75v-3.35h3.75v-5.8l4.3-1.15Z"/>
  </g>
</svg>