<svg width="86" height="84" viewBox="0 0 86 84" fill="none" xmlns="http://www.w3.org/2000/svg">
<path fill-rule="evenodd" clip-rule="evenodd" d="M17.7377 6.24601C13.7359 2.24417 7.2476 2.24417 3.24576 6.24601C-0.756073 10.2478 -0.756074 16.7361 3.24576 20.738L23.9271 41.4192C25.0986 42.5908 25.0986 44.4903 23.9271 45.6619L3.24552 66.3434C-0.75632 70.3453 -0.756317 76.8335 3.24552 80.8354C7.24736 84.8372 13.7356 84.8372 17.7375 80.8354L38.419 60.1538C39.5906 58.9823 41.4901 58.9823 42.6616 60.1538L63.3431 80.8353C67.3449 84.8371 73.8332 84.8371 77.835 80.8353C81.8369 76.8334 81.8369 70.3452 77.835 66.3433L57.1536 45.6619C55.982 44.4903 55.982 42.5908 57.1536 41.4192L77.8348 20.738C81.8366 16.7362 81.8366 10.2479 77.8348 6.2461C73.8329 2.24427 67.3447 2.24427 63.3428 6.2461L42.6616 26.9273C41.4901 28.0989 39.5906 28.0989 38.419 26.9273L17.7377 6.24601Z" fill="#00A09F"/>
<mask id="path-2-inside-1_502_416" fill="white">
<path fill-rule="evenodd" clip-rule="evenodd" d="M22.4936 3.00138C18.4917 -1.00046 12.0035 -1.00046 8.00162 3.00138C3.99979 7.00322 3.99979 13.4915 8.00162 17.4933L28.6829 38.1746C29.8545 39.3462 29.8545 41.2457 28.6829 42.4173L8.00138 63.0988C3.99954 67.1006 3.99954 73.5889 8.00138 77.5907C12.0032 81.5926 18.4915 81.5926 22.4933 77.5907L43.1749 56.9092C44.3464 55.7376 46.2459 55.7376 47.4175 56.9092L68.0989 77.5906C72.1008 81.5925 78.589 81.5925 82.5909 77.5906C86.5927 73.5888 86.5927 67.1005 82.5909 63.0987L61.9094 42.4173C60.7379 41.2457 60.7379 39.3462 61.9094 38.1746L82.5906 17.4934C86.5925 13.4916 86.5925 7.00331 82.5906 3.00148C78.5888 -1.00036 72.1005 -1.00036 68.0987 3.00148L47.4175 23.6827C46.2459 24.8542 44.3464 24.8542 43.1749 23.6827L22.4936 3.00138Z"/>
</mask>
<path d="M8.00162 3.00138L10.1229 5.1227L8.00162 3.00138ZM22.4936 3.00138L24.6149 0.880056L22.4936 3.00138ZM8.00162 17.4933L5.8803 19.6146L5.8803 19.6146L8.00162 17.4933ZM8.00138 63.0988L10.1227 65.2201L10.1227 65.2201L8.00138 63.0988ZM8.00138 77.5907L10.1227 75.4694L10.1227 75.4694L8.00138 77.5907ZM82.5909 77.5906L84.7122 79.712L84.7122 79.712L82.5909 77.5906ZM82.5909 63.0987L80.4696 65.22L80.4696 65.22L82.5909 63.0987ZM82.5906 17.4934L80.4693 15.3721L80.4693 15.3721L82.5906 17.4934ZM82.5906 3.00148L84.712 0.880157L84.712 0.880155L82.5906 3.00148ZM68.0987 3.00148L70.22 5.1228L70.22 5.1228L68.0987 3.00148ZM43.1749 23.6827L41.0535 25.804L43.1749 23.6827ZM61.9094 42.4173L59.7881 44.5386L61.9094 42.4173ZM61.9094 38.1746L59.7881 36.0533L61.9094 38.1746ZM28.6829 38.1746L26.5616 40.2959L28.6829 38.1746ZM28.6829 42.4173L30.8042 44.5386L28.6829 42.4173ZM10.1229 5.1227C12.9532 2.29243 17.542 2.29243 20.3722 5.1227L24.6149 0.880056C19.4415 -4.29336 11.0537 -4.29335 5.8803 0.88006L10.1229 5.1227ZM10.1229 15.372C7.29268 12.5417 7.29268 7.95297 10.1229 5.1227L5.8803 0.88006C0.706893 6.05347 0.706892 14.4412 5.8803 19.6146L10.1229 15.372ZM30.8042 36.0533L10.1229 15.372L5.8803 19.6146L26.5616 40.2959L30.8042 36.0533ZM10.1227 65.2201L30.8042 44.5386L26.5616 40.2959L5.88006 60.9775L10.1227 65.2201ZM10.1227 75.4694C7.29243 72.6391 7.29243 68.0504 10.1227 65.2201L5.88006 60.9775C0.706644 66.1509 0.706651 74.5386 5.88006 79.7121L10.1227 75.4694ZM20.372 75.4694C17.5417 78.2997 12.953 78.2997 10.1227 75.4694L5.88006 79.7121C11.0535 84.8855 19.4412 84.8855 24.6146 79.7121L20.372 75.4694ZM41.0535 54.7879L20.372 75.4694L24.6146 79.7121L45.2962 59.0305L41.0535 54.7879ZM70.2203 75.4693L49.5388 54.7879L45.2962 59.0305L65.9776 79.712L70.2203 75.4693ZM80.4696 75.4693C77.6393 78.2996 73.0505 78.2996 70.2203 75.4693L65.9776 79.712C71.151 84.8854 79.5388 84.8854 84.7122 79.712L80.4696 75.4693ZM80.4696 65.22C83.2998 68.0503 83.2998 72.6391 80.4696 75.4693L84.7122 79.712C89.8856 74.5386 89.8856 66.1508 84.7122 60.9774L80.4696 65.22ZM59.7881 44.5386L80.4696 65.22L84.7122 60.9774L64.0308 40.2959L59.7881 44.5386ZM80.4693 15.3721L59.7881 36.0533L64.0308 40.2959L84.712 19.6147L80.4693 15.3721ZM80.4693 5.12279C83.2996 7.95306 83.2996 12.5418 80.4693 15.3721L84.712 19.6147C89.8854 14.4413 89.8854 6.05356 84.712 0.880157L80.4693 5.12279ZM70.22 5.1228C73.0503 2.29253 77.6391 2.29253 80.4693 5.1228L84.712 0.880155C79.5386 -4.29326 71.1508 -4.29326 65.9774 0.880156L70.22 5.1228ZM49.5388 25.804L70.22 5.1228L65.9774 0.880155L45.2962 21.5614L49.5388 25.804ZM20.3722 5.1227L41.0535 25.804L45.2962 21.5614L24.6149 0.880057L20.3722 5.1227ZM45.2962 21.5614L45.2962 21.5614L41.0535 25.804C43.3967 28.1471 47.1957 28.1471 49.5388 25.804L45.2962 21.5614ZM64.0308 40.2959L64.0308 40.2959L59.7881 36.0533C57.445 38.3964 57.445 42.1954 59.7881 44.5386L64.0308 40.2959ZM45.2962 59.0305L45.2962 59.0305L49.5388 54.7879C47.1957 52.4447 43.3967 52.4447 41.0535 54.7879L45.2962 59.0305ZM26.5616 40.2959L26.5616 40.2959L30.8042 44.5386C33.1474 42.1954 33.1474 38.3964 30.8042 36.0533L26.5616 40.2959Z" fill="black" mask="url(#path-2-inside-1_502_416)"/>
</svg>
