<?xml version="1.0" encoding="UTF-8"?>
<svg id="Calque_1" data-name="Calque 1" xmlns="http://www.w3.org/2000/svg" viewBox="0 0 695 666">
  <defs>
    <style>
      .cls-1 {
        fill: #00a09f;
      }

      .cls-2 {
        fill: #dbffe2;
      }

      .cls-3 {
        fill: none;
        stroke: #000;
        stroke-miterlimit: 10;
        stroke-width: 2px;
      }

      .cls-4 {
        fill: #00c891;
      }

      .cls-5 {
        fill: #4ce78d;
      }

      .cls-6 {
        font-family: MyriadPro-Regular, 'Myriad Pro';
        font-size: 72px;
      }

      .cls-7 {
        fill: #005376;
      }
    </style>
  </defs>
  <g>
    <g>
      <path class="cls-2" d="M635.74,203.19l-261.74,78.81,9.75-260.83c115.82,3.98,213.71,78.54,251.99,182.02Z"/>
      <path class="cls-5" d="M565.97,530.66l-1.25-1.48c59.56-51.16,97.28-127.02,97.28-211.7,0-29.17-4.48-57.3-12.79-83.74l-262.44,84.62-.93,.3-7.24,2.34h-.01l-4.59,1.48,1.77,1.94,2.87,3.13,185.18,202.4,1.31,1.43,.84-.72Z"/>
      <path class="cls-7" d="M542.97,557.18l-1.25-1.48-177.95-210.82-.35-.41-.58,.71-7.2,8.89-167.78,207.1-1.18,1.46c47.6,37.8,107.83,60.37,173.32,60.37,.51,0,1.03,0,1.54-.01,68.38-.36,130.95-25.34,179.28-66.52l1.31,1.43,.84-.72Z"/>
      <path class="cls-1" d="M338.76,326.95l-4.16,5.05h0l-2.82,3.42-171.19,207.55c-61.46-51.17-100.58-128.26-100.58-214.49,0-28.56,4.29-56.11,12.26-82.06l147.1,44.45h.04s109.6,33.13,109.6,33.13l9.76,2.95Z"/>
      <path class="cls-4" d="M348,21.18V298.4l-109.64-36.01-145.99-47.95C127.51,105.23,228.13,25.4,348,21.18Z"/>
    </g>
    <g>
      <path class="cls-3" d="M603.74,218.19l-261.74,78.81,9.75-260.83c115.82,3.98,213.71,78.54,251.99,182.02Z"/>
      <path class="cls-3" d="M533.97,545.66l-1.25-1.48c59.56-51.16,97.28-127.02,97.28-211.7,0-29.17-4.48-57.3-12.79-83.74l-262.44,84.62-.93,.3-7.24,2.34h-.01l-4.59,1.48,1.77,1.94,2.87,3.13,185.18,202.4,1.31,1.43,.84-.72Z"/>
      <path class="cls-3" d="M510.97,572.18l-1.25-1.48-177.95-210.82-.35-.41-.58,.71-7.2,8.89-167.78,207.1-1.18,1.46c47.6,37.8,107.83,60.37,173.32,60.37,.51,0,1.03,0,1.54-.01,68.38-.36,130.95-25.34,179.28-66.52l1.31,1.43,.84-.72Z"/>
      <path class="cls-3" d="M306.76,341.95l-4.16,5.05h0l-2.82,3.42-171.19,207.55c-61.46-51.17-100.58-128.26-100.58-214.49,0-28.56,4.29-56.11,12.26-82.06l147.1,44.45h.04s109.6,33.13,109.6,33.13l9.76,2.95Z"/>
      <path class="cls-3" d="M316,36.18V313.4l-109.64-36.01L60.37,229.44C95.51,120.23,196.13,40.4,316,36.18Z"/>
    </g>
  </g>
  <text class="cls-6" transform="translate(220 191.12)"><tspan x="0" y="0">5</tspan></text>
  <text class="cls-6" transform="translate(429 183.12)"><tspan x="0" y="0">1</tspan></text>
  <text class="cls-6" transform="translate(148 406.12)"><tspan x="0" y="0">4</tspan></text>
  <text class="cls-6" transform="translate(339 535.12)"><tspan x="0" y="0">3</tspan></text>
  <text class="cls-6" transform="translate(511 384.12)"><tspan x="0" y="0">2</tspan></text>
</svg>