<svg width="174" height="115" viewBox="0 0 174 115" fill="none" xmlns="http://www.w3.org/2000/svg">
<path fill-rule="evenodd" clip-rule="evenodd" d="M69.9691 111.607C64.8035 113.265 59.2963 114.16 53.58 114.16C23.9886 114.16 0 90.1714 0 60.58C0 30.9886 23.9886 7 53.58 7C82.2896 7 105.725 29.5802 107.097 57.95H144.92C160.44 57.95 173.02 70.53 173.02 86.05H173.01C173.01 101.57 160.43 114.17 144.91 114.17C137.83 114.17 131.35 111.55 126.41 107.21H100.21C95.2598 111.55 88.7898 114.17 81.7098 114.17C77.52 114.17 73.5429 113.252 69.9691 111.607ZM98.36 90.83V84.53H89.84V76H83.53V84.53H75V90.83H83.53V99.36H89.84V90.83H98.36ZM142.86 101.43C145.544 101.43 147.72 99.2541 147.72 96.57C147.72 93.8859 145.544 91.71 142.86 91.71C140.176 91.71 138 93.8859 138 96.57C138 99.2541 140.176 101.43 142.86 101.43ZM157.44 82.86C157.44 85.5441 155.264 87.72 152.58 87.72C149.896 87.72 147.72 85.5441 147.72 82.86C147.72 80.1759 149.896 78 152.58 78C155.264 78 157.44 80.1759 157.44 82.86Z" fill="#00A09F"/>
<path d="M114.16 55.58C114.16 25.9886 90.1714 2 60.58 2C30.9886 2 7 25.9886 7 55.58C7 85.1714 30.9886 109.16 60.58 109.16" stroke="black" stroke-width="3" stroke-miterlimit="10"/>
<path d="M166.42 84.1C166.42 99.62 153.84 112.22 138.32 112.22C131.24 112.22 124.76 109.6 119.82 105.26H93.62C88.67 109.6 82.2 112.22 75.12 112.22C59.6 112.22 47 99.63 47 84.1C47 68.57 59.07 56.54 74.13 56.02C74.45 56 74.79 56 75.12 56H138.33C153.85 56 166.43 68.58 166.43 84.1H166.42Z" stroke="black" stroke-width="3" stroke-miterlimit="10"/>
</svg>
