<svg width="589" height="403" viewBox="0 0 589 403" fill="none" xmlns="http://www.w3.org/2000/svg">
<path id="extraction" d="M473.386 181.333H545.704L583 245.35L545.704 308H473.386L437 245.35L473.386 181.333Z" fill="url(#paint0_linear_521_355)"/>
<path id="extraction" d="M475.386 173H547.704L585 237.017L547.704 299.667H475.386L439 237.017L475.386 173Z" fill="url(#paint1_linear_521_355)" stroke="black" stroke-width="6"/>
<path id="extraction" fill-rule="evenodd" clip-rule="evenodd" d="M288.5 10H249V55H112C108.686 55 106 57.6863 106 61V192H18C8.05888 192 0 200.059 0 210V278C0 287.941 8.05887 296 18 296H119V335H87C68.2223 335 53 350.222 53 369C53 387.778 68.2223 403 87 403H260C278.778 403 294 387.778 294 369C294 350.222 278.778 335 260 335H236V296H276C285.941 296 294 287.941 294 278V205V192V55H353.48V94.3145L342.402 99.802C335.818 103.063 333.124 111.044 336.385 117.628C339.527 123.97 347.047 126.703 353.48 123.98V132.315L342.402 137.802C335.818 141.063 333.124 149.044 336.385 155.628C339.527 161.97 347.047 164.703 353.48 161.98V180.315L342.402 185.802C335.818 189.063 333.124 197.044 336.385 203.628C339.527 209.97 347.047 212.703 353.48 209.98V228.315L342.402 233.802C335.818 237.063 333.124 245.044 336.385 251.628C339.527 257.97 347.047 260.703 353.48 257.98V276.315L342.402 281.802C335.818 285.063 333.124 293.044 336.385 299.628C339.527 305.97 347.047 308.703 353.48 305.98V319.5L370.48 366L382.48 319.5V291.643L394.381 285.748C400.965 282.486 403.659 274.505 400.398 267.921C397.137 261.337 389.155 258.644 382.572 261.905L382.48 261.95V243.643L394.381 237.748C400.965 234.486 403.659 226.505 400.398 219.921C397.137 213.337 389.155 210.644 382.572 213.905L382.48 213.95V195.643L394.381 189.748C400.965 186.486 403.659 178.505 400.398 171.921C397.137 165.337 389.155 162.644 382.572 165.905L382.48 165.95V147.643L394.381 141.748C400.965 138.486 403.659 130.505 400.398 123.921C397.137 117.337 389.155 114.644 382.572 117.905L382.48 117.95V109.643L394.381 103.748C400.965 100.486 403.659 92.5053 400.398 85.9213C397.137 79.3373 389.155 76.6436 382.572 79.9049L382.48 79.95V55H389.5C401.926 55 412 44.9264 412 32.5C412 20.0736 401.926 10 389.5 10H294H288.5ZM138 73C134.686 73 132 75.6863 132 79V183C132 186.314 134.686 189 138 189H250C253.314 189 256 186.314 256 183V79C256 75.6863 253.314 73 250 73H138Z" fill="url(#paint2_linear_521_355)"/>
<mask id="path-4-inside-1_521_355" fill="white">
<path id="extraction" fill-rule="evenodd" clip-rule="evenodd" d="M296.5 0H257V45H120C116.686 45 114 47.6863 114 51V182H26C16.0589 182 8 190.059 8 200V268C8 277.941 16.0589 286 26 286H127V325H95C76.2223 325 61 340.222 61 359C61 377.778 76.2223 393 95 393H268C286.778 393 302 377.778 302 359C302 340.222 286.778 325 268 325H244V286H284C293.941 286 302 277.941 302 268V195V182V45H361.48V84.3145L350.402 89.802C343.818 93.0633 341.124 101.044 344.385 107.628C347.527 113.97 355.047 116.703 361.48 113.98V122.315L350.402 127.802C343.818 131.063 341.124 139.044 344.385 145.628C347.527 151.97 355.047 154.703 361.48 151.98V170.315L350.402 175.802C343.818 179.063 341.124 187.044 344.385 193.628C347.527 199.97 355.047 202.703 361.48 199.98V218.315L350.402 223.802C343.818 227.063 341.124 235.044 344.385 241.628C347.527 247.97 355.047 250.703 361.48 247.98V266.315L350.402 271.802C343.818 275.063 341.124 283.044 344.385 289.628C347.527 295.97 355.047 298.703 361.48 295.98V309.5L378.48 356L390.48 309.5V281.643L402.381 275.748C408.965 272.486 411.659 264.505 408.398 257.921C405.137 251.337 397.155 248.644 390.572 251.905L390.48 251.95V233.643L402.381 227.748C408.965 224.486 411.659 216.505 408.398 209.921C405.137 203.337 397.155 200.644 390.572 203.905L390.48 203.95V185.643L402.381 179.748C408.965 176.486 411.659 168.505 408.398 161.921C405.137 155.337 397.155 152.644 390.572 155.905L390.48 155.95V137.643L402.381 131.748C408.965 128.486 411.659 120.505 408.398 113.921C405.137 107.337 397.155 104.644 390.572 107.905L390.48 107.95V99.6426L402.381 93.7476C408.965 90.4864 411.659 82.5053 408.398 75.9213C405.137 69.3373 397.155 66.6436 390.572 69.9049L390.48 69.95V45H397.5C409.926 45 420 34.9264 420 22.5C420 10.0736 409.926 0 397.5 0H302H296.5ZM146 63C142.686 63 140 65.6863 140 69V173C140 176.314 142.686 179 146 179H258C261.314 179 264 176.314 264 173V69C264 65.6863 261.314 63 258 63H146Z"/>
</mask>
<path id="extraction" d="M257 0V-6H251V0H257ZM257 45V51H263V45H257ZM114 182V188H120V182H114ZM127 286H133V280H127V286ZM127 325V331H133V325H127ZM244 325H238V331H244V325ZM244 286V280H238V286H244ZM302 45V39H296V45H302ZM361.48 45H367.48V39H361.48V45ZM361.48 84.3145L364.143 89.6911L367.48 88.0383V84.3145H361.48ZM350.402 89.802L353.065 95.1786L353.065 95.1786L350.402 89.802ZM344.385 107.628L349.762 104.965L349.762 104.965L344.385 107.628ZM361.48 113.98H367.48V104.926L359.142 108.455L361.48 113.98ZM361.48 122.315L364.143 127.691L367.48 126.038V122.315H361.48ZM350.402 127.802L353.065 133.179L353.065 133.179L350.402 127.802ZM344.385 145.628L349.762 142.965L349.762 142.965L344.385 145.628ZM361.48 151.98H367.48V142.926L359.142 146.455L361.48 151.98ZM361.48 170.315L364.143 175.691L367.48 174.038V170.315H361.48ZM350.402 175.802L353.065 181.179L353.065 181.179L350.402 175.802ZM344.385 193.628L349.762 190.965L349.762 190.965L344.385 193.628ZM361.48 199.98H367.48V190.926L359.142 194.455L361.48 199.98ZM361.48 218.315L364.143 223.691L367.48 222.038V218.315H361.48ZM350.402 223.802L353.065 229.179L353.065 229.179L350.402 223.802ZM344.385 241.628L349.762 238.965L349.762 238.965L344.385 241.628ZM361.48 247.98H367.48V238.926L359.142 242.455L361.48 247.98ZM361.48 266.315L364.143 271.691L367.48 270.038V266.315H361.48ZM350.402 271.802L353.065 277.179L353.065 277.179L350.402 271.802ZM344.385 289.628L349.762 286.965L349.762 286.965L344.385 289.628ZM361.48 295.98H367.48V286.926L359.142 290.455L361.48 295.98ZM361.48 309.5H355.48V310.562L355.845 311.56L361.48 309.5ZM378.48 356L372.845 358.06L379.469 376.179L384.29 357.499L378.48 356ZM390.48 309.5L396.29 310.999L396.48 310.262V309.5H390.48ZM390.48 281.643L387.817 276.266L384.48 277.919V281.643H390.48ZM402.381 275.748L399.718 270.371L399.718 270.371L402.381 275.748ZM408.398 257.921L413.774 255.258L413.774 255.258L408.398 257.921ZM390.572 251.905L393.235 257.281L393.235 257.281L390.572 251.905ZM390.48 251.95H384.48V261.618L393.143 257.327L390.48 251.95ZM390.48 233.643L387.817 228.266L384.48 229.919V233.643H390.48ZM402.381 227.748L399.718 222.371L399.718 222.371L402.381 227.748ZM390.572 203.905L393.235 209.281L393.235 209.281L390.572 203.905ZM390.48 203.95H384.48V213.618L393.143 209.327L390.48 203.95ZM390.48 185.643L387.817 180.266L384.48 181.919V185.643H390.48ZM402.381 179.748L399.718 174.371L399.718 174.371L402.381 179.748ZM390.572 155.905L393.234 161.282L393.235 161.281L390.572 155.905ZM390.48 155.95H384.48V165.616L393.143 161.327L390.48 155.95ZM390.48 137.643L387.817 132.266L384.48 133.919V137.643H390.48ZM402.381 131.748L399.718 126.371L399.718 126.371L402.381 131.748ZM390.572 107.905L393.235 113.281L393.235 113.281L390.572 107.905ZM390.48 107.95H384.48V117.618L393.143 113.327L390.48 107.95ZM390.48 99.6426L387.817 94.266L384.48 95.9189V99.6426H390.48ZM402.381 93.7476L399.718 88.3711L399.718 88.3711L402.381 93.7476ZM390.572 69.9049L393.235 75.2815L393.235 75.2814L390.572 69.9049ZM390.48 69.95H384.48V79.6176L393.143 75.3266L390.48 69.95ZM390.48 45V39H384.48V45H390.48ZM257 6H296.5V-6H257V6ZM263 45V0H251V45H263ZM120 51H257V39H120V51ZM120 51V51V39C113.373 39 108 44.3726 108 51H120ZM120 182V51H108V182H120ZM26 188H114V176H26V188ZM14 200C14 193.373 19.3726 188 26 188V176C12.7452 176 2 186.745 2 200H14ZM14 268V200H2V268H14ZM26 280C19.3726 280 14 274.627 14 268H2C2 281.255 12.7452 292 26 292V280ZM127 280H26V292H127V280ZM133 325V286H121V325H133ZM95 331H127V319H95V331ZM67 359C67 343.536 79.536 331 95 331V319C72.9086 319 55 336.909 55 359H67ZM95 387C79.536 387 67 374.464 67 359H55C55 381.091 72.9086 399 95 399V387ZM268 387H95V399H268V387ZM296 359C296 374.464 283.464 387 268 387V399C290.091 399 308 381.091 308 359H296ZM268 331C283.464 331 296 343.536 296 359H308C308 336.909 290.091 319 268 319V331ZM244 331H268V319H244V331ZM238 286V325H250V286H238ZM284 280H244V292H284V280ZM296 268C296 274.627 290.627 280 284 280V292C297.255 292 308 281.255 308 268H296ZM296 195V268H308V195H296ZM296 182V195H308V182H296ZM296 45V182H308V45H296ZM361.48 39H302V51H361.48V39ZM367.48 84.3145V45H355.48V84.3145H367.48ZM353.065 95.1786L364.143 89.6911L358.817 78.9379L347.739 84.4255L353.065 95.1786ZM349.762 104.965C347.971 101.351 349.45 96.969 353.065 95.1786L347.739 84.4255C338.185 89.1575 334.277 100.738 339.009 110.292L349.762 104.965ZM359.142 108.455C355.615 109.947 351.485 108.445 349.762 104.965L339.009 110.292C343.568 119.496 354.479 123.458 363.819 119.506L359.142 108.455ZM367.48 122.315V113.98H355.48V122.315H367.48ZM353.065 133.179L364.143 127.691L358.817 116.938L347.739 122.425L353.065 133.179ZM349.762 142.965C347.971 139.351 349.45 134.969 353.065 133.179L347.739 122.425C338.185 127.158 334.277 138.738 339.009 148.292L349.762 142.965ZM359.142 146.455C355.615 147.947 351.485 146.445 349.762 142.965L339.009 148.292C343.568 157.496 354.479 161.458 363.819 157.506L359.142 146.455ZM367.48 170.315V151.98H355.48V170.315H367.48ZM353.065 181.179L364.143 175.691L358.817 164.938L347.739 170.425L353.065 181.179ZM349.762 190.965C347.971 187.351 349.45 182.969 353.065 181.179L347.739 170.425C338.185 175.158 334.277 186.738 339.009 196.292L349.762 190.965ZM359.142 194.455C355.615 195.947 351.485 194.445 349.762 190.965L339.009 196.292C343.568 205.496 354.479 209.458 363.819 205.506L359.142 194.455ZM367.48 218.315V199.98H355.48V218.315H367.48ZM353.065 229.179L364.143 223.691L358.817 212.938L347.739 218.425L353.065 229.179ZM349.762 238.965C347.971 235.351 349.45 230.969 353.065 229.179L347.739 218.425C338.185 223.158 334.277 234.738 339.009 244.292L349.762 238.965ZM359.142 242.455C355.615 243.947 351.485 242.445 349.762 238.965L339.009 244.292C343.568 253.496 354.479 257.458 363.819 253.506L359.142 242.455ZM367.48 266.315V247.98H355.48V266.315H367.48ZM353.065 277.179L364.143 271.691L358.817 260.938L347.739 266.425L353.065 277.179ZM349.762 286.965C347.971 283.351 349.45 278.969 353.065 277.179L347.739 266.425C338.185 271.158 334.277 282.738 339.009 292.292L349.762 286.965ZM359.142 290.455C355.615 291.947 351.485 290.445 349.762 286.965L339.009 292.292C343.568 301.496 354.479 305.458 363.819 301.506L359.142 290.455ZM367.48 309.5V295.98H355.48V309.5H367.48ZM384.115 353.94L367.115 307.44L355.845 311.56L372.845 358.06L384.115 353.94ZM384.671 308.001L372.671 354.501L384.29 357.499L396.29 310.999L384.671 308.001ZM384.48 281.643V309.5H396.48V281.643H384.48ZM399.718 270.371L387.817 276.266L393.143 287.019L405.045 281.124L399.718 270.371ZM403.021 260.584C404.812 264.199 403.333 268.581 399.718 270.371L405.045 281.124C414.598 276.392 418.506 264.812 413.774 255.258L403.021 260.584ZM393.235 257.281C396.849 255.491 401.231 256.97 403.021 260.584L413.774 255.258C409.042 245.705 397.462 241.796 387.908 246.528L393.235 257.281ZM393.143 257.327L393.235 257.281L387.908 246.528L387.817 246.573L393.143 257.327ZM384.48 233.643V251.95H396.48V233.643H384.48ZM399.718 222.371L387.817 228.266L393.143 239.019L405.045 233.124L399.718 222.371ZM403.021 212.584C404.812 216.199 403.333 220.581 399.718 222.371L405.045 233.124C414.598 228.392 418.506 216.812 413.774 207.258L403.021 212.584ZM393.235 209.281C396.849 207.491 401.231 208.97 403.021 212.584L413.774 207.258C409.042 197.705 397.462 193.796 387.908 198.528L393.235 209.281ZM393.143 209.327L393.235 209.281L387.908 198.528L387.817 198.573L393.143 209.327ZM384.48 185.643V203.95H396.48V185.643H384.48ZM399.718 174.371L387.817 180.266L393.143 191.019L405.045 185.124L399.718 174.371ZM403.021 164.584C404.812 168.199 403.333 172.581 399.718 174.371L405.045 185.124C414.598 180.392 418.506 168.812 413.774 159.258L403.021 164.584ZM393.235 161.281C396.849 159.491 401.231 160.97 403.021 164.584L413.774 159.258C409.042 149.705 397.462 145.796 387.908 150.528L393.235 161.281ZM393.143 161.327L393.234 161.282L387.909 150.528L387.818 150.573L393.143 161.327ZM384.48 137.643V155.95H396.48V137.643H384.48ZM399.718 126.371L387.817 132.266L393.143 143.019L405.045 137.124L399.718 126.371ZM403.021 116.584C404.812 120.199 403.333 124.581 399.718 126.371L405.045 137.124C414.598 132.392 418.506 120.812 413.774 111.258L403.021 116.584ZM393.235 113.281C396.849 111.491 401.231 112.97 403.021 116.584L413.774 111.258C409.042 101.705 397.462 97.7962 387.908 102.528L393.235 113.281ZM393.143 113.327L393.235 113.281L387.908 102.528L387.817 102.573L393.143 113.327ZM384.48 99.6426V107.95H396.48V99.6426H384.48ZM399.718 88.3711L387.817 94.266L393.143 105.019L405.045 99.1242L399.718 88.3711ZM403.021 78.5844C404.812 82.199 403.333 86.5807 399.718 88.3711L405.045 99.1242C414.598 94.3922 418.506 82.8115 413.774 73.2581L403.021 78.5844ZM393.235 75.2814C396.849 73.491 401.231 74.9698 403.021 78.5844L413.774 73.2581C409.042 63.7047 397.462 59.7962 387.908 64.5283L393.235 75.2814ZM393.143 75.3266L393.235 75.2815L387.908 64.5283L387.817 64.5734L393.143 75.3266ZM384.48 45V69.95H396.48V45H384.48ZM397.5 39H390.48V51H397.5V39ZM414 22.5C414 31.6127 406.613 39 397.5 39V51C413.24 51 426 38.2401 426 22.5H414ZM397.5 6C406.613 6 414 13.3873 414 22.5H426C426 6.75988 413.24 -6 397.5 -6V6ZM302 6H397.5V-6H302V6ZM296.5 6H302V-6H296.5V6ZM146 69V57C139.373 57 134 62.3726 134 69H146ZM146 173V69H134V173H146ZM146 173H134C134 179.627 139.373 185 146 185V173ZM258 173H146V185H258V173ZM258 173V185C264.627 185 270 179.627 270 173H258ZM258 69V173H270V69H258ZM258 69H270C270 62.3726 264.627 57 258 57V69ZM146 69H258V57H146V69Z" fill="black" mask="url(#path-4-inside-1_521_355)"/>
<defs>
<linearGradient id="paint0_linear_521_355" x1="510" y1="181.333" x2="510" y2="308" gradientUnits="userSpaceOnUse">
<stop stop-color="#F5C4C4"/>
<stop offset="1" stop-color="#9C2626"/>
</linearGradient>
<linearGradient id="paint1_linear_521_355" x1="512" y1="173" x2="512" y2="299.667" gradientUnits="userSpaceOnUse">
<stop stop-color="#F5C4C4"/>
<stop offset="1" stop-color="#9C2626"/>
</linearGradient>
<linearGradient id="paint2_linear_521_355" x1="206" y1="10" x2="206" y2="403" gradientUnits="userSpaceOnUse">
<stop stop-color="#F5C4C4"/>
<stop offset="1" stop-color="#9C2626"/>
</linearGradient>
</defs>
</svg>
