<svg width="497" height="411" viewBox="0 0 497 411" fill="none" xmlns="http://www.w3.org/2000/svg">
<path class="extraction" d="M180.579 203H289.056L345 299.025L289.056 393H180.579L126 299.025L180.579 203Z" fill="url(#paint0_linear_529_8)"/>
<path class="extraction" d="M180.579 193H289.056L345 289.025L289.056 383H180.579L126 289.025L180.579 193Z" stroke="black" stroke-width="6"/>
<path class="extraction" fill-rule="evenodd" clip-rule="evenodd" d="M382.646 214.403C385.38 211.669 385.38 207.237 382.646 204.503L374.846 196.703C373.533 195.39 371.753 194.653 369.896 194.653L339.275 194.653C337.418 194.653 335.638 195.39 334.325 196.703L277.95 253.078C275.216 255.812 275.216 260.244 277.95 262.978L301.061 286.089C303.794 288.822 308.227 288.822 310.96 286.089L327.721 269.328C330.455 266.594 334.887 266.594 337.621 269.328L436.934 368.64C439.667 371.374 444.099 371.374 446.833 368.64L464.871 350.603C467.604 347.869 467.604 343.437 464.871 340.703L365.558 241.39C362.824 238.657 362.824 234.225 365.558 231.491L382.646 214.403Z" fill="url(#paint1_linear_529_8)"/>
<path class="extraction" d="M339.275 185.21L339.275 188.21L339.275 185.21ZM369.897 185.21L369.897 182.21L369.897 185.21ZM376.968 185.139L384.768 192.939L380.525 197.182L372.725 189.382L376.968 185.139ZM339.275 182.21L369.897 182.21L369.897 188.21L339.275 188.21L339.275 182.21ZM275.828 241.515L332.204 185.139L336.446 189.382L280.071 245.757L275.828 241.515ZM298.94 278.768L275.828 255.657L280.071 251.414L303.182 274.525L298.94 278.768ZM329.843 262.007L313.082 278.768L308.839 274.525L325.6 257.764L329.843 262.007ZM434.812 361.319L335.5 262.007L339.742 257.764L439.055 357.077L434.812 361.319ZM466.992 343.282L448.954 361.319L444.712 357.077L462.749 339.039L466.992 343.282ZM367.679 229.827L466.992 329.139L462.749 333.382L363.437 234.069L367.679 229.827ZM384.768 207.082L367.679 224.17L363.437 219.927L380.525 202.839L384.768 207.082ZM363.437 234.069C359.532 230.164 359.532 223.833 363.437 219.927L367.679 224.17C366.117 225.732 366.117 228.265 367.679 229.827L363.437 234.069ZM462.749 339.039C464.312 337.477 464.312 334.944 462.749 333.382L466.992 329.139C470.897 333.045 470.897 339.376 466.992 343.282L462.749 339.039ZM439.055 357.077C440.617 358.639 443.15 358.639 444.712 357.077L448.954 361.319C445.049 365.225 438.718 365.225 434.812 361.319L439.055 357.077ZM325.6 257.764C329.505 253.859 335.837 253.859 339.742 257.764L335.5 262.007C333.938 260.445 331.405 260.445 329.843 262.007L325.6 257.764ZM303.182 274.525C304.744 276.087 307.277 276.087 308.839 274.525L313.082 278.768C309.176 282.673 302.845 282.673 298.94 278.768L303.182 274.525ZM280.071 245.757C278.509 247.319 278.509 249.852 280.071 251.414L275.828 255.657C271.923 251.751 271.923 245.42 275.828 241.515L280.071 245.757ZM339.275 188.21C338.214 188.21 337.196 188.632 336.446 189.382L332.204 185.139C334.079 183.264 336.623 182.21 339.275 182.21L339.275 188.21ZM384.768 192.939C388.673 196.845 388.673 203.176 384.768 207.082L380.525 202.839C382.087 201.277 382.087 198.744 380.525 197.182L384.768 192.939ZM372.725 189.382C371.975 188.632 370.957 188.21 369.897 188.21L369.897 182.21C372.549 182.21 375.092 183.264 376.968 185.139L372.725 189.382Z" fill="black"/>
<path class="extraction" fill-rule="evenodd" clip-rule="evenodd" d="M164.845 209.296C145.836 199.829 122.135 204.216 107.897 221.208C95.8193 235.623 93.8638 255.153 101.268 271.159L26.4757 360.423C23.2833 364.233 23.784 369.909 27.594 373.101L44.457 387.231C48.267 390.423 53.9434 389.922 57.1357 386.112L131.928 296.849C148.984 301.337 167.87 295.993 179.948 281.579C194.415 264.313 194.358 239.707 181.088 222.608L158.01 250.151C156.946 251.421 155.053 251.588 153.784 250.524L142.286 240.89C141.016 239.826 140.849 237.934 141.913 236.664L164.845 209.296Z" fill="url(#paint2_linear_529_8)"/>
<mask id="path-6-inside-1_529_8" fill="white">
<path class="extraction" fill-rule="evenodd" clip-rule="evenodd" d="M164.845 199.296C145.836 189.829 122.135 194.216 107.897 211.208C95.8193 225.623 93.8639 245.153 101.268 261.159L26.4757 350.423C23.2834 354.233 23.7841 359.909 27.594 363.101L44.4571 377.231C48.267 380.423 53.9435 379.922 57.1358 376.112L131.928 286.849C148.984 291.337 167.87 285.993 179.948 271.579C194.415 254.313 194.358 229.707 181.088 212.608L158.01 240.151C156.946 241.421 155.054 241.588 153.784 240.524L142.286 230.89C141.016 229.826 140.849 227.934 141.913 226.664L164.845 199.296Z"/>
</mask>
<path class="extraction" d="M164.845 199.296L169.444 203.149L174.331 197.317L167.52 193.925L164.845 199.296ZM101.268 261.159L105.867 265.013L108.312 262.095L106.714 258.64L101.268 261.159ZM26.4757 350.423L21.8767 346.569L26.4757 350.423ZM131.928 286.849L133.455 281.047L129.774 280.078L127.329 282.996L131.928 286.849ZM181.088 212.608L185.828 208.929L181.267 203.052L176.489 208.754L181.088 212.608ZM141.913 226.664L137.314 222.811L141.913 226.664ZM167.52 193.925C146.084 183.249 119.359 188.187 103.298 207.355L112.496 215.062C124.911 200.244 145.588 196.408 162.17 204.666L167.52 193.925ZM103.298 207.355C89.6727 223.616 87.4794 245.642 95.8228 263.678L106.714 258.64C100.248 244.663 101.966 227.629 112.496 215.062L103.298 207.355ZM96.6693 257.306L21.8767 346.569L31.0747 354.276L105.867 265.013L96.6693 257.306ZM21.8767 346.569C16.5562 352.919 17.3907 362.38 23.7406 367.7L31.4475 358.502C30.1775 357.438 30.0106 355.546 31.0747 354.276L21.8767 346.569ZM23.7406 367.7L40.6036 381.83L48.3105 372.632L31.4475 358.502L23.7406 367.7ZM40.6036 381.83C46.9535 387.15 56.4143 386.316 61.7348 379.966L52.5368 372.259C51.4727 373.529 49.5805 373.696 48.3105 372.632L40.6036 381.83ZM61.7348 379.966L136.527 290.703L127.329 282.996L52.5368 372.259L61.7348 379.966ZM130.402 292.652C149.62 297.709 170.922 291.694 184.547 275.433L175.349 267.726C164.819 280.293 148.349 284.966 133.455 281.047L130.402 292.652ZM184.547 275.433C200.865 255.957 200.794 228.212 185.828 208.929L176.348 216.286C187.923 231.201 187.964 252.67 175.349 267.726L184.547 275.433ZM176.489 208.754L153.411 236.298L162.609 244.005L185.687 216.461L176.489 208.754ZM153.411 236.298C154.475 235.028 156.367 234.861 157.637 235.925L149.93 245.123C153.74 248.315 159.416 247.815 162.609 244.005L153.411 236.298ZM157.637 235.925L146.14 226.291L138.433 235.489L149.93 245.123L157.637 235.925ZM146.14 226.291C147.409 227.355 147.576 229.248 146.512 230.518L137.314 222.811C134.122 226.621 134.623 232.297 138.433 235.489L146.14 226.291ZM146.512 230.518L169.444 203.149L160.246 195.442L137.314 222.811L146.512 230.518Z" fill="black" mask="url(#path-6-inside-1_529_8)"/>
<path class="extraction" fill-rule="evenodd" clip-rule="evenodd" d="M115.046 29.5039C109.498 31.9791 107.007 38.4832 109.482 44.0312L137.517 106.872C139.992 112.42 146.497 114.911 152.045 112.436C153.367 111.846 154.917 112.439 155.507 113.762L212.007 240.404C212.339 241.15 212.962 241.728 213.73 242.004L220.934 244.6C222.56 245.186 224.343 244.281 224.83 242.623L226.729 236.156C226.93 235.472 226.881 234.739 226.591 234.088L169.557 106.25C169.223 105.5 169.56 104.622 170.309 104.287C175.857 101.812 178.348 95.3078 175.873 89.7597L147.838 26.9192C145.362 21.3711 138.858 18.8801 133.31 21.3553L115.046 29.5039Z" fill="url(#paint3_linear_529_8)"/>
<path class="extraction" d="M176.027 72.8862L178.766 71.6639L176.027 72.8862ZM147.991 10.0456L145.252 11.2679L147.991 10.0456ZM169.711 89.3767L166.971 90.599L169.711 89.3767ZM226.883 219.282L224.005 218.437L226.883 219.282ZM221.088 227.727L222.105 224.904L221.088 227.727ZM224.983 225.75L222.105 224.904L224.983 225.75ZM213.883 225.131L214.9 222.308L213.883 225.131ZM155.66 96.8882L152.921 98.1105L155.66 96.8882ZM112.375 25.9354C110.575 21.9004 112.387 17.1702 116.421 15.3701L113.977 9.89063C106.916 13.0409 103.745 21.3188 106.896 28.38L112.375 25.9354ZM140.411 88.776L112.375 25.9354L106.896 28.38L134.931 91.2205L140.411 88.776ZM150.976 92.8224C146.941 94.6225 142.211 92.8109 140.411 88.776L134.931 91.2205C138.081 98.2817 146.359 101.452 153.42 98.3018L150.976 92.8224ZM214.9 222.308L158.4 95.6659L152.921 98.1105L209.421 224.753L214.9 222.308ZM222.105 224.904L214.9 222.308L212.866 227.953L220.071 230.549L222.105 224.904ZM224.005 218.437L222.105 224.904L227.862 226.595L229.761 220.128L224.005 218.437ZM166.971 90.599L224.005 218.437L229.484 215.992L172.451 88.1544L166.971 90.599ZM173.287 74.1085C175.087 78.1434 173.276 82.8737 169.241 84.6738L171.685 90.1533C178.746 87.003 181.917 78.7251 178.766 71.6639L173.287 74.1085ZM145.252 11.2679L173.287 74.1085L178.766 71.6639L150.731 8.82336L145.252 11.2679ZM134.686 7.22147C138.721 5.42134 143.451 7.233 145.252 11.2679L150.731 8.82336C147.581 1.76222 139.303 -1.40819 132.242 1.74205L134.686 7.22147ZM116.421 15.3701L134.686 7.22147L132.242 1.74205L113.977 9.89063L116.421 15.3701ZM172.451 88.1544C172.791 88.9178 172.449 89.8127 171.685 90.1533L169.241 84.6738C166.978 85.6834 165.962 88.3361 166.971 90.599L172.451 88.1544ZM229.761 220.128C230.163 218.76 230.065 217.294 229.484 215.992L224.005 218.437L224.005 218.437L229.761 220.128ZM220.071 230.549C223.322 231.721 226.888 229.911 227.862 226.595L222.105 224.904L222.105 224.904L220.071 230.549ZM209.421 224.753C210.086 226.244 211.33 227.4 212.866 227.953L214.9 222.308L214.9 222.308L209.421 224.753ZM153.42 98.3018C153.23 98.387 153.006 98.3013 152.921 98.1105L158.4 95.6659C157.135 92.8305 153.811 91.5574 150.976 92.8224L153.42 98.3018Z" fill="black"/>
<defs>
<linearGradient id="paint0_linear_529_8" x1="235.5" y1="203" x2="235.5" y2="393" gradientUnits="userSpaceOnUse">
<stop stop-color="#EFFFAE"/>
<stop offset="1" stop-color="#CADF6C"/>
</linearGradient>
<linearGradient id="paint1_linear_529_8" x1="404.5" y1="216.5" x2="404.5" y2="345.5" gradientUnits="userSpaceOnUse">
<stop stop-color="#D3E22F"/>
<stop offset="1" stop-color="#8C9800"/>
</linearGradient>
<linearGradient id="paint2_linear_529_8" x1="173.423" y1="216.185" x2="36.0255" y2="380.166" gradientUnits="userSpaceOnUse">
<stop stop-color="#D4E230"/>
<stop offset="1" stop-color="#8C9801"/>
</linearGradient>
<linearGradient id="paint3_linear_529_8" x1="124.178" y1="25.4296" x2="222.129" y2="244.984" gradientUnits="userSpaceOnUse">
<stop stop-color="#D4E230"/>
<stop offset="1" stop-color="#8C9801"/>
</linearGradient>
</defs>
</svg>
