<?xml version="1.0" encoding="UTF-8"?>
<svg id="Calque_1" data-name="Calque 1" xmlns="http://www.w3.org/2000/svg" viewBox="0 0 695 389">
  <defs>
    <style>
      .cls-1 {
        fill: #00c891;
      }

      .cls-2 {
        fill: none;
        stroke: #000;
        stroke-linecap: round;
        stroke-linejoin: round;
        stroke-width: 2px;
      }
    </style>
  </defs>
  <g>
    <path class="cls-1" d="M679.37,11V177.82c-84.69,0-153.33,68.64-153.33,153.33H57.48V11H679.37Z"/>
    <path class="cls-2" d="M638.9,31.85V198.67c-84.69,0-153.33,68.64-153.33,153.33H17V31.85H638.9Z"/>
  </g>
  <g>
    <path d="M101.7,132.8h4.35v22.55c0,8.95-4.4,11.7-10.2,11.7-1.6,0-3.55-.35-4.65-.8l.65-3.55c.9,.35,2.2,.65,3.65,.65,3.9,0,6.2-1.75,6.2-8.35v-22.2Z"/>
    <path d="M115.6,155.2c.1,5.95,3.9,8.4,8.3,8.4,3.15,0,5.05-.55,6.7-1.25l.75,3.15c-1.55,.7-4.2,1.5-8.05,1.5-7.45,0-11.9-4.9-11.9-12.2s4.3-13.05,11.35-13.05c7.9,0,10,6.95,10,11.4,0,.9-.1,1.6-.15,2.05h-17Zm12.9-3.15c.05-2.8-1.15-7.15-6.1-7.15-4.45,0-6.4,4.1-6.75,7.15h12.85Z"/>
    <path d="M148.8,131h4.4v35.5h-4.4v-35.5Z"/>
    <path d="M163.05,155.2c.1,5.95,3.9,8.4,8.3,8.4,3.15,0,5.05-.55,6.7-1.25l.75,3.15c-1.55,.7-4.2,1.5-8.05,1.5-7.45,0-11.9-4.9-11.9-12.2s4.3-13.05,11.35-13.05c7.9,0,10,6.95,10,11.4,0,.9-.1,1.6-.15,2.05h-17Zm12.9-3.15c.05-2.8-1.15-7.15-6.1-7.15-4.45,0-6.4,4.1-6.75,7.15h12.85Z"/>
    <path d="M185.05,162c1.3,.85,3.6,1.75,5.8,1.75,3.2,0,4.7-1.6,4.7-3.6,0-2.1-1.25-3.25-4.5-4.45-4.35-1.55-6.4-3.95-6.4-6.85,0-3.9,3.15-7.1,8.35-7.1,2.45,0,4.6,.7,5.95,1.5l-1.1,3.2c-.95-.6-2.7-1.4-4.95-1.4-2.6,0-4.05,1.5-4.05,3.3,0,2,1.45,2.9,4.6,4.1,4.2,1.6,6.35,3.7,6.35,7.3,0,4.25-3.3,7.25-9.05,7.25-2.65,0-5.1-.65-6.8-1.65l1.1-3.35Z"/>
    <path d="M217.75,142.3l4.75,13.6c.8,2.2,1.45,4.2,1.95,6.2h.15c.55-2,1.25-4,2.05-6.2l4.7-13.6h4.6l-9.5,24.2h-4.2l-9.2-24.2h4.7Z"/>
    <path d="M242.05,155.2c.1,5.95,3.9,8.4,8.3,8.4,3.15,0,5.05-.55,6.7-1.25l.75,3.15c-1.55,.7-4.2,1.5-8.05,1.5-7.45,0-11.9-4.9-11.9-12.2s4.3-13.05,11.35-13.05c7.9,0,10,6.95,10,11.4,0,.9-.1,1.6-.15,2.05h-17Zm12.9-3.15c.05-2.8-1.15-7.15-6.1-7.15-4.45,0-6.4,4.1-6.75,7.15h12.85Z"/>
    <path d="M264.65,148.85c0-2.5-.05-4.55-.2-6.55h3.9l.25,4h.1c1.2-2.3,4-4.55,8-4.55,3.35,0,8.55,2,8.55,10.3v14.45h-4.4v-13.95c0-3.9-1.45-7.15-5.6-7.15-2.9,0-5.15,2.05-5.9,4.5-.2,.55-.3,1.3-.3,2.05v14.55h-4.4v-17.65Z"/>
    <path d="M313.3,131v29.25c0,2.15,.05,4.6,.2,6.25h-3.95l-.2-4.2h-.1c-1.35,2.7-4.3,4.75-8.25,4.75-5.85,0-10.35-4.95-10.35-12.3-.05-8.05,4.95-13,10.85-13,3.7,0,6.2,1.75,7.3,3.7h.1v-14.45h4.4Zm-4.4,21.15c0-.55-.05-1.3-.2-1.85-.65-2.8-3.05-5.1-6.35-5.1-4.55,0-7.25,4-7.25,9.35,0,4.9,2.4,8.95,7.15,8.95,2.95,0,5.65-1.95,6.45-5.25,.15-.6,.2-1.2,.2-1.9v-4.2Z"/>
    <path d="M320,162c1.3,.85,3.6,1.75,5.8,1.75,3.2,0,4.7-1.6,4.7-3.6,0-2.1-1.25-3.25-4.5-4.45-4.35-1.55-6.4-3.95-6.4-6.85,0-3.9,3.15-7.1,8.35-7.1,2.45,0,4.6,.7,5.95,1.5l-1.1,3.2c-.95-.6-2.7-1.4-4.95-1.4-2.6,0-4.05,1.5-4.05,3.3,0,2,1.45,2.9,4.6,4.1,4.2,1.6,6.35,3.7,6.35,7.3,0,4.25-3.3,7.25-9.05,7.25-2.65,0-5.1-.65-6.8-1.65l1.1-3.35Z"/>
    <path d="M371.9,131v29.25c0,2.15,.05,4.6,.2,6.25h-3.95l-.2-4.2h-.1c-1.35,2.7-4.3,4.75-8.25,4.75-5.85,0-10.35-4.95-10.35-12.3-.05-8.05,4.95-13,10.85-13,3.7,0,6.2,1.75,7.3,3.7h.1v-14.45h4.4Zm-4.4,21.15c0-.55-.05-1.3-.2-1.85-.65-2.8-3.05-5.1-6.35-5.1-4.55,0-7.25,4-7.25,9.35,0,4.9,2.4,8.95,7.15,8.95,2.95,0,5.65-1.95,6.45-5.25,.15-.6,.2-1.2,.2-1.9v-4.2Z"/>
    <path d="M385.05,132.25c-1.15,4.2-3.3,9.55-4.7,11.85l-2.8,.35c1.1-2.95,2.4-8.15,2.95-11.75l4.55-.45Z"/>
    <path d="M418.05,154.2c0,8.95-6.2,12.85-12.05,12.85-6.55,0-11.6-4.8-11.6-12.45,0-8.1,5.3-12.85,12-12.85s11.65,5.05,11.65,12.45Zm-19.2,.25c0,5.3,3.05,9.3,7.35,9.3s7.35-3.95,7.35-9.4c0-4.1-2.05-9.3-7.25-9.3s-7.45,4.8-7.45,9.4Z"/>
    <path d="M440.85,165.6c-1.15,.6-3.7,1.4-6.95,1.4-7.3,0-12.05-4.95-12.05-12.35s5.1-12.85,13-12.85c2.6,0,4.9,.65,6.1,1.25l-1,3.4c-1.05-.6-2.7-1.15-5.1-1.15-5.55,0-8.55,4.1-8.55,9.15,0,5.6,3.6,9.05,8.4,9.05,2.5,0,4.15-.65,5.4-1.2l.75,3.3Z"/>
    <path d="M462.95,165.6c-1.15,.6-3.7,1.4-6.95,1.4-7.3,0-12.05-4.95-12.05-12.35s5.1-12.85,13-12.85c2.6,0,4.9,.65,6.1,1.25l-1,3.4c-1.05-.6-2.7-1.15-5.1-1.15-5.55,0-8.55,4.1-8.55,9.15,0,5.6,3.6,9.05,8.4,9.05,2.5,0,4.15-.65,5.4-1.2l.75,3.3Z"/>
    <path d="M481.5,166.5l-.35-3.05h-.15c-1.35,1.9-3.95,3.6-7.4,3.6-4.9,0-7.4-3.45-7.4-6.95,0-5.85,5.2-9.05,14.55-9v-.5c0-2-.55-5.6-5.5-5.6-2.25,0-4.6,.7-6.3,1.8l-1-2.9c2-1.3,4.9-2.15,7.95-2.15,7.4,0,9.2,5.05,9.2,9.9v9.05c0,2.1,.1,4.15,.4,5.8h-4Zm-.65-12.35c-4.8-.1-10.25,.75-10.25,5.45,0,2.85,1.9,4.2,4.15,4.2,3.15,0,5.15-2,5.85-4.05,.15-.45,.25-.95,.25-1.4v-4.2Z"/>
    <path d="M491.6,162c1.3,.85,3.6,1.75,5.8,1.75,3.2,0,4.7-1.6,4.7-3.6,0-2.1-1.25-3.25-4.5-4.45-4.35-1.55-6.4-3.95-6.4-6.85,0-3.9,3.15-7.1,8.35-7.1,2.45,0,4.6,.7,5.95,1.5l-1.1,3.2c-.95-.6-2.7-1.4-4.95-1.4-2.6,0-4.05,1.5-4.05,3.3,0,2,1.45,2.9,4.6,4.1,4.2,1.6,6.35,3.7,6.35,7.3,0,4.25-3.3,7.25-9.05,7.25-2.65,0-5.1-.65-6.8-1.65l1.1-3.35Z"/>
    <path d="M516.9,135.5c.05,1.5-1.05,2.7-2.8,2.7-1.55,0-2.65-1.2-2.65-2.7s1.15-2.75,2.75-2.75,2.7,1.2,2.7,2.75Zm-4.9,31v-24.2h4.4v24.2h-4.4Z"/>
    <path d="M545.6,154.2c0,8.95-6.2,12.85-12.05,12.85-6.55,0-11.6-4.8-11.6-12.45,0-8.1,5.3-12.85,12-12.85s11.65,5.05,11.65,12.45Zm-19.2,.25c0,5.3,3.05,9.3,7.35,9.3s7.35-3.95,7.35-9.4c0-4.1-2.05-9.3-7.25-9.3s-7.45,4.8-7.45,9.4Z"/>
    <path d="M551.15,148.85c0-2.5-.05-4.55-.2-6.55h3.9l.25,4h.1c1.2-2.3,4-4.55,8-4.55,3.35,0,8.55,2,8.55,10.3v14.45h-4.4v-13.95c0-3.9-1.45-7.15-5.6-7.15-2.9,0-5.15,2.05-5.9,4.5-.2,.55-.3,1.3-.3,2.05v14.55h-4.4v-17.65Z"/>
  </g>
</svg>