<svg width="157" height="101" viewBox="0 0 157 101" fill="none" xmlns="http://www.w3.org/2000/svg">
<path fill-rule="evenodd" clip-rule="evenodd" d="M149.658 63.7561V98.5216C149.658 99.6966 148.707 100.643 147.543 100.643H135.08C133.909 100.643 132.965 99.6899 132.965 98.5216V87.9268C132.965 86.7518 132.015 85.8052 130.85 85.8052H17.6041C16.4328 85.8052 15.4891 86.7586 15.4891 87.9268V98.5216C15.4891 99.6966 14.5387 100.643 13.3741 100.643H2.45777C1.28649 100.643 0.342773 99.6899 0.342773 98.5216V6.4715C0.342773 5.29654 1.29318 4.34985 2.45777 4.34985H13.3674C14.5387 4.34985 15.4824 5.30325 15.4824 6.4715V59.5061C15.4824 60.681 16.4328 61.6277 17.5974 61.6277H53V35.0008C53 33.893 53.8902 33 54.9945 33H121.148C121.249 33 121.343 33 121.443 33.0201C136.696 35.0679 148.61 47.5024 149.614 62.8643C149.623 63.0106 149.617 63.154 149.595 63.2928C149.627 63.4399 149.644 63.5927 149.644 63.7494L149.658 63.7561ZM48.4921 42.862C48.4921 50.7825 42.0914 57.2033 34.1957 57.2033C26.3001 57.2033 19.8994 50.7825 19.8994 42.862C19.8994 34.9416 26.3001 28.5208 34.1957 28.5208C42.0914 28.5208 48.4921 34.9416 48.4921 42.862Z" fill="#FBFBFB"/>
<path fill-rule="evenodd" clip-rule="evenodd" d="M149.658 63.7561V98.5216C149.658 99.6966 148.707 100.643 147.543 100.643H135.08C133.909 100.643 132.965 99.6899 132.965 98.5216V87.9268C132.965 86.7518 132.015 85.8052 130.85 85.8052H17.6041C16.4328 85.8052 15.4891 86.7586 15.4891 87.9268V98.5216C15.4891 99.6966 14.5387 100.643 13.3741 100.643H2.45777C1.28649 100.643 0.342773 99.6899 0.342773 98.5216V6.4715C0.342773 5.29654 1.29318 4.34985 2.45777 4.34985H13.3674C14.5387 4.34985 15.4824 5.30325 15.4824 6.4715V59.5061C15.4824 60.681 16.4328 61.6277 17.5974 61.6277H53V35.0008C53 33.893 53.8902 33 54.9945 33H121.148C121.249 33 121.343 33 121.443 33.0201C136.696 35.0679 148.61 47.5024 149.614 62.8643C149.623 63.0106 149.617 63.154 149.595 63.2928C149.627 63.4399 149.644 63.5927 149.644 63.7494L149.658 63.7561ZM48.4921 42.862C48.4921 50.7825 42.0914 57.2033 34.1957 57.2033C26.3001 57.2033 19.8994 50.7825 19.8994 42.862C19.8994 34.9416 26.3001 28.5208 34.1957 28.5208C42.0914 28.5208 48.4921 34.9416 48.4921 42.862Z" fill="#00A09F"/>
<path d="M127.1 30.6703L126.805 32.141L126.853 32.1505L126.901 32.157L127.1 30.6703ZM155.271 60.5144L156.768 60.4184L156.768 60.4166L155.271 60.5144ZM155.266 60.8371L156.758 60.9848L155.266 60.8371ZM155.273 61.0477L153.793 61.2943L155.273 61.0477ZM155.301 61.392L156.801 61.3869L155.301 61.392ZM156.815 96.1718V61.4137H153.815V96.1718H156.815ZM153.2 99.7934C155.194 99.7934 156.815 98.1738 156.815 96.1718H153.815C153.815 96.5197 153.535 96.7934 153.2 96.7934V99.7934ZM140.737 99.7934H153.2V96.7934H140.737V99.7934ZM137.122 96.1718C137.122 98.1609 138.73 99.7934 140.737 99.7934V96.7934C140.402 96.7934 140.122 96.5191 140.122 96.1718H137.122ZM137.122 85.577V96.1718H140.122V85.577H137.122ZM136.507 84.9553C136.842 84.9553 137.122 85.2291 137.122 85.577H140.122C140.122 83.5749 138.502 81.9553 136.507 81.9553V84.9553ZM23.2613 84.9553H136.507V81.9553H23.2613V84.9553ZM22.6463 85.577C22.6463 85.2296 22.926 84.9553 23.2613 84.9553V81.9553C21.2541 81.9553 19.6463 83.5878 19.6463 85.577H22.6463ZM22.6463 96.1718V85.577H19.6463V96.1718H22.6463ZM19.0313 99.7934C21.0257 99.7934 22.6463 98.1738 22.6463 96.1718H19.6463C19.6463 96.5197 19.3661 96.7934 19.0313 96.7934V99.7934ZM8.115 99.7934H19.0313V96.7934H8.115V99.7934ZM4.5 96.1718C4.5 98.1609 6.10777 99.7934 8.115 99.7934V96.7934C7.77967 96.7934 7.5 96.5191 7.5 96.1718H4.5ZM4.5 4.12165V96.1718H7.5V4.12165H4.5ZM8.115 0.5C6.12063 0.5 4.5 2.11961 4.5 4.12165H7.5C7.5 3.77376 7.78019 3.5 8.115 3.5V0.5ZM19.0246 0.5H8.115V3.5H19.0246V0.5ZM22.6396 4.12165C22.6396 2.13251 21.0319 0.5 19.0246 0.5V3.5C19.36 3.5 19.6396 3.77429 19.6396 4.12165H22.6396ZM22.6396 57.1562V4.12165H19.6396V57.1562H22.6396ZM23.2546 57.7779C22.9198 57.7779 22.6396 57.5041 22.6396 57.1562H19.6396C19.6396 59.1583 21.2603 60.7779 23.2546 60.7779V57.7779ZM55.6572 57.7779H23.2546V60.7779H55.6572V57.7779ZM57.1572 32.6509V56.2779H60.1572V32.6509H57.1572ZM60.6518 29.1501C58.7145 29.1501 57.1572 30.7191 57.1572 32.6509H60.1572C60.1572 32.3671 60.3803 32.1501 60.6518 32.1501V29.1501ZM126.806 29.1501H60.6518V32.1501H126.806V29.1501ZM127.395 29.1996C127.127 29.1458 126.888 29.1501 126.806 29.1501V32.1501C126.819 32.1501 126.829 32.1501 126.838 32.1502C126.848 32.1502 126.855 32.1503 126.861 32.1503C126.873 32.1505 126.876 32.1507 126.875 32.1506C126.874 32.1506 126.866 32.1501 126.853 32.1487C126.841 32.1472 126.824 32.1449 126.805 32.141L127.395 29.1996ZM156.768 60.4166C155.716 44.3228 143.242 31.3239 127.3 29.1836L126.901 32.157C141.465 34.1123 152.818 45.9823 153.774 60.6122L156.768 60.4166ZM156.758 60.9848C156.777 60.7987 156.78 60.6094 156.768 60.4184L153.774 60.6104C153.776 60.6383 153.775 60.6645 153.773 60.6894L156.758 60.9848ZM156.801 61.3869C156.801 61.1884 156.784 60.9927 156.752 60.8012L153.793 61.2943C153.798 61.3269 153.801 61.3612 153.801 61.3972L156.801 61.3869ZM39.853 56.3535C48.5815 56.3535 55.6493 49.2566 55.6493 40.5122H52.6493C52.6493 47.6087 46.9157 53.3535 39.853 53.3535V56.3535ZM24.0566 40.5122C24.0566 49.2566 31.1245 56.3535 39.853 56.3535V53.3535C32.7902 53.3535 27.0566 47.6087 27.0566 40.5122H24.0566ZM39.853 24.6709C31.1245 24.6709 24.0566 31.7677 24.0566 40.5122H27.0566C27.0566 33.4157 32.7902 27.6709 39.853 27.6709V24.6709ZM55.6493 40.5122C55.6493 31.7677 48.5815 24.6709 39.853 24.6709V27.6709C46.9157 27.6709 52.6493 33.4157 52.6493 40.5122H55.6493ZM153.773 60.6894C153.753 60.888 153.759 61.0915 153.793 61.2943L156.752 60.8012C156.763 60.8648 156.764 60.9266 156.758 60.9848L153.773 60.6894ZM55.6572 60.7779C58.1425 60.7779 60.1572 58.7632 60.1572 56.2779H57.1572C57.1572 57.1063 56.4857 57.7779 55.6572 57.7779V60.7779ZM153.801 61.3972C153.803 61.964 154.123 62.4864 154.636 62.7436L155.981 60.0622C156.485 60.3152 156.8 60.8292 156.801 61.3869L153.801 61.3972ZM156.815 61.4137C156.815 60.8416 156.492 60.3186 155.981 60.0622L154.636 62.7436C154.133 62.4913 153.815 61.9767 153.815 61.4137H156.815Z" fill="black"/>
</svg>
