<svg width="138" height="114" viewBox="0 0 138 114" fill="none" xmlns="http://www.w3.org/2000/svg">
<path d="M115.598 66.8027H12.4081C7.85828 66.8027 4.16992 70.4958 4.16992 75.0513V105.643C4.16992 110.199 7.85828 113.892 12.4081 113.892H115.598C120.148 113.892 123.836 110.199 123.836 105.643V75.0513C123.836 70.4958 120.148 66.8027 115.598 66.8027Z" fill="#00A09F"/>
<path d="M119.662 22.1006H8.33877C3.78895 22.1006 0.100586 25.7936 0.100586 30.3492V75.0514C0.100586 79.607 3.78895 83.3 8.33877 83.3H119.662C124.212 83.3 127.9 79.607 127.9 75.0514V30.3492C127.9 25.7936 124.212 22.1006 119.662 22.1006Z" fill="#00A09F"/>
<path d="M46.1686 22.1005V17.8054C46.1686 13.3735 49.7548 9.78284 54.181 9.78284H73.4875C77.9137 9.78284 81.4999 13.3735 81.4999 17.8054V22.1005H86.4197V17.8264C86.4197 11.3495 81.1796 6.10278 74.7109 6.10278H53.2674C46.7987 6.10278 41.5586 11.3495 41.5586 17.8264V22.1005H46.1739H46.1686Z" fill="#00A09F"/>
<path d="M70.0325 70.4829H57.9667C55.7193 70.4829 53.8975 72.3071 53.8975 74.5573V92.0428C53.8975 94.293 55.7193 96.1172 57.9667 96.1172H70.0325C72.2799 96.1172 74.1018 94.293 74.1018 92.0428V74.5573C74.1018 72.3071 72.2799 70.4829 70.0325 70.4829Z" fill="#00A09F"/>
<path d="M54.068 17.9977V19.4977H55.568V17.9977H54.068ZM89.3993 17.9977H87.8993V19.4977H89.3993V17.9977ZM94.3191 17.9977V19.4977H95.8191V17.9977H94.3191ZM49.458 17.9977H47.958V19.4977H49.458V17.9977ZM131.736 78.0614L130.974 76.7693L130.236 77.2045V78.0614H131.736ZM12.0693 78.0646H13.5693V77.207L12.8302 76.7719L12.0693 78.0646ZM52.568 13.7026V17.9977H55.568V13.7026H52.568ZM62.0804 4.18006C56.824 4.18006 52.568 8.44411 52.568 13.7026H55.568C55.568 10.0974 58.4844 7.18006 62.0804 7.18006V4.18006ZM81.3869 4.18006H62.0804V7.18006H81.3869V4.18006ZM90.8993 13.7026C90.8993 8.44411 86.6434 4.18006 81.3869 4.18006V7.18006C84.9829 7.18006 87.8993 10.0974 87.8993 13.7026H90.8993ZM90.8993 17.9977V13.7026H87.8993V17.9977H90.8993ZM94.3191 16.4977H89.3993V19.4977H94.3191V16.4977ZM92.8191 13.7236V17.9977H95.8191V13.7236H92.8191ZM82.6103 3.5C88.2488 3.5 92.8191 8.07335 92.8191 13.7236H95.8191C95.8191 6.42007 89.9092 0.5 82.6103 0.5V3.5ZM61.1668 3.5H82.6103V0.5H61.1668V3.5ZM50.958 13.7236C50.958 8.07336 55.5283 3.5 61.1668 3.5V0.5C53.8679 0.5 47.958 6.42007 47.958 13.7236H50.958ZM50.958 17.9977V13.7236H47.958V17.9977H50.958ZM54.068 16.4977H49.458V19.4977H54.068V16.4977ZM127.561 16.4978H16.2382V19.4978H127.561V16.4978ZM137.3 26.2464C137.3 20.8642 132.941 16.4978 127.561 16.4978V19.4978C131.281 19.4978 134.3 22.5175 134.3 26.2464H137.3ZM137.3 70.9486V26.2464H134.3V70.9486H137.3ZM132.498 79.3535C135.368 77.6607 137.3 74.5308 137.3 70.9486H134.3C134.3 73.4269 132.967 75.5942 130.974 76.7693L132.498 79.3535ZM133.236 101.54V78.0614H130.236V101.54H133.236ZM123.497 111.289C128.878 111.289 133.236 106.923 133.236 101.54H130.236C130.236 105.269 127.217 108.289 123.497 108.289V111.289ZM20.3075 111.289H123.497V108.289H20.3075V111.289ZM10.5693 101.54C10.5693 106.923 14.9275 111.289 20.3075 111.289V108.289C16.5879 108.289 13.5693 105.269 13.5693 101.54H10.5693ZM10.5693 78.0646V101.54H13.5693V78.0646H10.5693ZM6.5 70.9486C6.5 74.5335 8.43394 77.6654 11.3085 79.3573L12.8302 76.7719C10.8349 75.5975 9.5 73.4288 9.5 70.9486H6.5ZM6.5 26.2464V70.9486H9.5V26.2464H6.5ZM16.2382 16.4978C10.8582 16.4978 6.5 20.8642 6.5 26.2464H9.5C9.5 22.5175 12.5186 19.4978 16.2382 19.4978V16.4978Z" fill="black"/>
</svg>
