<?xml version="1.0" encoding="UTF-8"?>
<svg id="Calque_1" data-name="Calque 1" xmlns="http://www.w3.org/2000/svg" viewBox="0 0 404 389">
  <defs>
    <style>
      .cls-1 {
        fill: none;
        stroke: #000;
        stroke-miterlimit: 10;
      }

      .cls-2 {
        fill: #005376;
      }
    </style>
  </defs>
  <circle class="cls-2" cx="212" cy="187" r="179"/>
  <circle class="cls-1" cx="188" cy="195" r="179"/>
  <g>
    <path d="M84.25,165.9l-3.5,10.6h-4.5l11.45-33.7h5.25l11.5,33.7h-4.65l-3.6-10.6h-11.95Zm11.05-3.4l-3.3-9.7c-.75-2.2-1.25-4.2-1.75-6.15h-.1c-.5,2-1.05,4.05-1.7,6.1l-3.3,9.75h10.15Z"/>
    <path d="M128.9,169.9c0,2.5,.05,4.7,.2,6.6h-3.9l-.25-3.95h-.1c-1.15,1.95-3.7,4.5-8,4.5-3.8,0-8.35-2.1-8.35-10.6v-14.15h4.4v13.4c0,4.6,1.4,7.7,5.4,7.7,2.95,0,5-2.05,5.8-4,.25-.65,.4-1.45,.4-2.25v-14.85h4.4v17.6Z"/>
    <path d="M153.45,175.6c-1.15,.6-3.7,1.4-6.95,1.4-7.3,0-12.05-4.95-12.05-12.35s5.1-12.85,13-12.85c2.6,0,4.9,.65,6.1,1.25l-1,3.4c-1.05-.6-2.7-1.15-5.1-1.15-5.55,0-8.55,4.1-8.55,9.15,0,5.6,3.6,9.05,8.4,9.05,2.5,0,4.15-.65,5.4-1.2l.75,3.3Z"/>
    <path d="M178.85,169.9c0,2.5,.05,4.7,.2,6.6h-3.9l-.25-3.95h-.1c-1.15,1.95-3.7,4.5-8,4.5-3.8,0-8.35-2.1-8.35-10.6v-14.15h4.4v13.4c0,4.6,1.4,7.7,5.4,7.7,2.95,0,5-2.05,5.8-4,.25-.65,.4-1.45,.4-2.25v-14.85h4.4v17.6Z"/>
    <path d="M186.15,158.85c0-2.5-.05-4.55-.2-6.55h3.9l.25,4h.1c1.2-2.3,4-4.55,8-4.55,3.35,0,8.55,2,8.55,10.3v14.45h-4.4v-13.95c0-3.9-1.45-7.15-5.6-7.15-2.9,0-5.15,2.05-5.9,4.5-.2,.55-.3,1.3-.3,2.05v14.55h-4.4v-17.65Z"/>
    <path d="M216.35,165.2c.1,5.95,3.9,8.4,8.3,8.4,3.15,0,5.05-.55,6.7-1.25l.75,3.15c-1.55,.7-4.2,1.5-8.05,1.5-7.45,0-11.9-4.9-11.9-12.2s4.3-13.05,11.35-13.05c7.9,0,10,6.95,10,11.4,0,.9-.1,1.6-.15,2.05h-17Zm12.9-3.15c.05-2.8-1.15-7.15-6.1-7.15-4.45,0-6.4,4.1-6.75,7.15h12.85Z"/>
    <path d="M270.45,141v29.25c0,2.15,.05,4.6,.2,6.25h-3.95l-.2-4.2h-.1c-1.35,2.7-4.3,4.75-8.25,4.75-5.85,0-10.35-4.95-10.35-12.3-.05-8.05,4.95-13,10.85-13,3.7,0,6.2,1.75,7.3,3.7h.1v-14.45h4.4Zm-4.4,21.15c0-.55-.05-1.3-.2-1.85-.65-2.8-3.05-5.1-6.35-5.1-4.55,0-7.25,4-7.25,9.35,0,4.9,2.4,8.95,7.15,8.95,2.95,0,5.65-1.95,6.45-5.25,.15-.6,.2-1.2,.2-1.9v-4.2Z"/>
    <path d="M280.2,165.2c.1,5.95,3.9,8.4,8.3,8.4,3.15,0,5.05-.55,6.7-1.25l.75,3.15c-1.55,.7-4.2,1.5-8.05,1.5-7.45,0-11.9-4.9-11.9-12.2s4.3-13.05,11.35-13.05c7.9,0,10,6.95,10,11.4,0,.9-.1,1.6-.15,2.05h-17Zm12.9-3.15c.05-2.8-1.15-7.15-6.1-7.15-4.45,0-6.4,4.1-6.75,7.15h12.85Z"/>
    <path d="M302.2,172c1.3,.85,3.6,1.75,5.8,1.75,3.2,0,4.7-1.6,4.7-3.6,0-2.1-1.25-3.25-4.5-4.45-4.35-1.55-6.4-3.95-6.4-6.85,0-3.9,3.15-7.1,8.35-7.1,2.45,0,4.6,.7,5.95,1.5l-1.1,3.2c-.95-.6-2.7-1.4-4.95-1.4-2.6,0-4.05,1.5-4.05,3.3,0,2,1.45,2.9,4.6,4.1,4.2,1.6,6.35,3.7,6.35,7.3,0,4.25-3.3,7.25-9.05,7.25-2.65,0-5.1-.65-6.8-1.65l1.1-3.35Z"/>
    <path d="M78.65,220.2c0-3.1-.1-5.6-.2-7.9h3.95l.2,4.15h.1c1.8-2.95,4.65-4.7,8.6-4.7,5.85,0,10.25,4.95,10.25,12.3,0,8.7-5.3,13-11,13-3.2,0-6-1.4-7.45-3.8h-.1v13.15h-4.35v-26.2Zm4.35,6.45c0,.65,.1,1.25,.2,1.8,.8,3.05,3.45,5.15,6.6,5.15,4.65,0,7.35-3.8,7.35-9.35,0-4.85-2.55-9-7.2-9-3,0-5.8,2.15-6.65,5.45-.15,.55-.3,1.2-.3,1.8v4.15Z"/>
    <path d="M107.1,219.85c0-2.85-.05-5.3-.2-7.55h3.85l.15,4.75h.2c1.1-3.25,3.75-5.3,6.7-5.3,.5,0,.85,.05,1.25,.15v4.15c-.45-.1-.9-.15-1.5-.15-3.1,0-5.3,2.35-5.9,5.65-.1,.6-.2,1.3-.2,2.05v12.9h-4.35v-16.65Z"/>
    <path d="M144.85,224.2c0,8.95-6.2,12.85-12.05,12.85-6.55,0-11.6-4.8-11.6-12.45,0-8.1,5.3-12.85,12-12.85s11.65,5.05,11.65,12.45Zm-19.2,.25c0,5.3,3.05,9.3,7.35,9.3s7.35-3.95,7.35-9.4c0-4.1-2.05-9.3-7.25-9.3s-7.45,4.8-7.45,9.4Z"/>
    <path d="M150.4,220.2c0-3.1-.1-5.6-.2-7.9h3.95l.2,4.15h.1c1.8-2.95,4.65-4.7,8.6-4.7,5.85,0,10.25,4.95,10.25,12.3,0,8.7-5.3,13-11,13-3.2,0-6-1.4-7.45-3.8h-.1v13.15h-4.35v-26.2Zm4.35,6.45c0,.65,.1,1.25,.2,1.8,.8,3.05,3.45,5.15,6.6,5.15,4.65,0,7.35-3.8,7.35-9.35,0-4.85-2.55-9-7.2-9-3,0-5.8,2.15-6.65,5.45-.15,.55-.3,1.2-.3,1.8v4.15Z"/>
    <path d="M200.75,224.2c0,8.95-6.2,12.85-12.05,12.85-6.55,0-11.6-4.8-11.6-12.45,0-8.1,5.3-12.85,12-12.85s11.65,5.05,11.65,12.45Zm-19.2,.25c0,5.3,3.05,9.3,7.35,9.3s7.35-3.95,7.35-9.4c0-4.1-2.05-9.3-7.25-9.3s-7.45,4.8-7.45,9.4Z"/>
    <path d="M205.7,232c1.3,.85,3.6,1.75,5.8,1.75,3.2,0,4.7-1.6,4.7-3.6,0-2.1-1.25-3.25-4.5-4.45-4.35-1.55-6.4-3.95-6.4-6.85,0-3.9,3.15-7.1,8.35-7.1,2.45,0,4.6,.7,5.95,1.5l-1.1,3.2c-.95-.6-2.7-1.4-4.95-1.4-2.6,0-4.05,1.5-4.05,3.3,0,2,1.45,2.9,4.6,4.1,4.2,1.6,6.35,3.7,6.35,7.3,0,4.25-3.3,7.25-9.05,7.25-2.65,0-5.1-.65-6.8-1.65l1.1-3.35Z"/>
    <path d="M231,205.5c.05,1.5-1.05,2.7-2.8,2.7-1.55,0-2.65-1.2-2.65-2.7s1.15-2.75,2.75-2.75,2.7,1.2,2.7,2.75Zm-4.9,31v-24.2h4.4v24.2h-4.4Z"/>
    <path d="M243.1,205.35v6.95h6.3v3.35h-6.3v13.05c0,3,.85,4.7,3.3,4.7,1.15,0,2-.15,2.55-.3l.2,3.3c-.85,.35-2.2,.6-3.9,.6-2.05,0-3.7-.65-4.75-1.85-1.25-1.3-1.7-3.45-1.7-6.3v-13.2h-3.75v-3.35h3.75v-5.8l4.3-1.15Z"/>
    <path d="M259.25,205.5c.05,1.5-1.05,2.7-2.8,2.7-1.55,0-2.65-1.2-2.65-2.7s1.15-2.75,2.75-2.75,2.7,1.2,2.7,2.75Zm-4.9,31v-24.2h4.4v24.2h-4.4Z"/>
    <path d="M287.95,224.2c0,8.95-6.2,12.85-12.05,12.85-6.55,0-11.6-4.8-11.6-12.45,0-8.1,5.3-12.85,12-12.85s11.65,5.05,11.65,12.45Zm-19.2,.25c0,5.3,3.05,9.3,7.35,9.3s7.35-3.95,7.35-9.4c0-4.1-2.05-9.3-7.25-9.3s-7.45,4.8-7.45,9.4Z"/>
    <path d="M293.5,218.85c0-2.5-.05-4.55-.2-6.55h3.9l.25,4h.1c1.2-2.3,4-4.55,8-4.55,3.35,0,8.55,2,8.55,10.3v14.45h-4.4v-13.95c0-3.9-1.45-7.15-5.6-7.15-2.9,0-5.15,2.05-5.9,4.5-.2,.55-.3,1.3-.3,2.05v14.55h-4.4v-17.65Z"/>
    <path d="M320.65,232c1.3,.85,3.6,1.75,5.8,1.75,3.2,0,4.7-1.6,4.7-3.6,0-2.1-1.25-3.25-4.5-4.45-4.35-1.55-6.4-3.95-6.4-6.85,0-3.9,3.15-7.1,8.35-7.1,2.45,0,4.6,.7,5.95,1.5l-1.1,3.2c-.95-.6-2.7-1.4-4.95-1.4-2.6,0-4.05,1.5-4.05,3.3,0,2,1.45,2.9,4.6,4.1,4.2,1.6,6.35,3.7,6.35,7.3,0,4.25-3.3,7.25-9.05,7.25-2.65,0-5.1-.65-6.8-1.65l1.1-3.35Z"/>
  </g>
</svg>