<svg width="179" height="219" viewBox="0 0 179 219" fill="none" xmlns="http://www.w3.org/2000/svg">
<path fill-rule="evenodd" clip-rule="evenodd" d="M55.4141 23.9965L89.6754 23.9965H107.794C111.66 23.9965 114.794 27.1305 114.794 30.9965V94.2129C114.794 98.0789 117.928 101.213 121.794 101.213H165.474C169.34 101.213 172.474 104.347 172.474 108.213V119.331C172.474 119.344 172.474 119.357 172.474 119.369V121.134C172.474 125 169.34 128.134 165.474 128.134H121.93C118.064 128.134 114.93 131.268 114.93 135.134L114.93 180.109V198.169C114.93 202.035 111.796 205.169 107.93 205.169L89.8707 205.169L53.3245 205.169C48.2818 213.461 39.1606 219 28.7457 219C12.8699 219 0.000106812 206.13 0.000106812 190.254C0.000106812 174.379 12.8699 161.509 28.7457 161.509C41.0502 161.509 51.549 169.24 55.6498 180.109H82.8707C86.7367 180.109 89.8707 176.975 89.8707 173.109V128.134V126.331H89.6755L89.6754 126.331V101.213V56.1151C89.6754 52.2491 86.5414 49.1151 82.6754 49.1151H53.6475C48.6777 57.709 39.3869 63.4911 28.7457 63.4911C12.8699 63.4911 0.000106812 50.6213 0.000106812 34.7456C0.000106812 18.8698 12.8699 6 28.7457 6C40.8211 6 51.1574 13.4457 55.4141 23.9965Z" fill="url(#paint0_linear_461_133)"/>
<mask id="path-2-inside-1_461_133" fill="white">
<path fill-rule="evenodd" clip-rule="evenodd" d="M61.4141 17.9965L95.6754 17.9965H113.794C117.66 17.9965 120.794 21.1305 120.794 24.9965V88.2129C120.794 92.0789 123.928 95.2129 127.794 95.2129H171.474C175.34 95.2129 178.474 98.3469 178.474 102.213V113.331C178.474 113.344 178.474 113.357 178.474 113.369V115.134C178.474 119 175.34 122.134 171.474 122.134H127.93C124.064 122.134 120.93 125.268 120.93 129.134L120.93 174.109V192.169C120.93 196.035 117.796 199.169 113.93 199.169L95.8707 199.169L59.3245 199.169C54.2818 207.461 45.1606 213 34.7457 213C18.8699 213 6.00011 200.13 6.00011 184.254C6.00011 168.379 18.8699 155.509 34.7457 155.509C47.0502 155.509 57.549 163.24 61.6498 174.109H88.8707C92.7367 174.109 95.8707 170.975 95.8707 167.109V122.134V120.331H95.6755L95.6754 120.331V95.2129V50.1151C95.6754 46.2491 92.5414 43.1151 88.6754 43.1151H59.6475C54.6777 51.709 45.3869 57.4911 34.7457 57.4911C18.8699 57.4911 6.00011 44.6213 6.00011 28.7456C6.00011 12.8698 18.8699 0 34.7457 0C46.8211 0 57.1574 7.44571 61.4141 17.9965Z"/>
</mask>
<path d="M95.6754 17.9965V16.9965V17.9965ZM61.4141 17.9965V18.9965H60.7392L60.4867 18.3707L61.4141 17.9965ZM178.474 113.369H177.474L177.474 113.364L178.474 113.369ZM120.93 129.134H119.93H120.93ZM120.93 174.109H121.93H120.93ZM113.93 199.169V198.169V199.169ZM95.8707 199.169V200.169V199.169ZM59.3245 199.169L58.4701 198.649L58.7622 198.169H59.3245V199.169ZM61.6498 174.109V175.109H60.9583L60.7142 174.462L61.6498 174.109ZM95.8707 120.331V119.331H96.8707V120.331H95.8707ZM95.6755 120.331V121.331H95.3134L95.0353 121.1L95.6755 120.331ZM95.6754 120.331L95.0352 121.1L94.6754 120.8V120.331H95.6754ZM59.6475 43.1151L58.7818 42.6145L59.0706 42.1151H59.6475V43.1151ZM95.6754 18.9965L61.4141 18.9965V16.9965L95.6754 16.9965V18.9965ZM113.794 18.9965H95.6754V16.9965H113.794V18.9965ZM119.794 24.9965C119.794 21.6828 117.108 18.9965 113.794 18.9965V16.9965C118.212 16.9965 121.794 20.5783 121.794 24.9965H119.794ZM119.794 88.2129V24.9965H121.794V88.2129H119.794ZM127.794 96.2129C123.376 96.2129 119.794 92.6311 119.794 88.2129H121.794C121.794 91.5266 124.48 94.2129 127.794 94.2129V96.2129ZM171.474 96.2129H127.794V94.2129H171.474V96.2129ZM177.474 102.213C177.474 98.8992 174.787 96.2129 171.474 96.2129V94.2129C175.892 94.2129 179.474 97.7946 179.474 102.213H177.474ZM177.474 113.331V102.213H179.474V113.331H177.474ZM177.474 113.364C177.474 113.353 177.474 113.342 177.474 113.331H179.474C179.474 113.346 179.474 113.36 179.474 113.375L177.474 113.364ZM179.474 113.369V115.134H177.474V113.369H179.474ZM179.474 115.134C179.474 119.553 175.892 123.134 171.474 123.134V121.134C174.787 121.134 177.474 118.448 177.474 115.134H179.474ZM171.474 123.134H127.93V121.134H171.474V123.134ZM127.93 123.134C124.616 123.134 121.93 125.821 121.93 129.134H119.93C119.93 124.716 123.512 121.134 127.93 121.134V123.134ZM121.93 129.134L121.93 174.109H119.93L119.93 129.134H121.93ZM121.93 174.109V192.169H119.93V174.109H121.93ZM121.93 192.169C121.93 196.587 118.348 200.169 113.93 200.169V198.169C117.244 198.169 119.93 195.482 119.93 192.169H121.93ZM113.93 200.169L95.8707 200.169V198.169L113.93 198.169V200.169ZM95.8707 200.169L59.3245 200.169V198.169L95.8707 198.169V200.169ZM60.1789 199.688C54.9624 208.267 45.5241 214 34.7457 214V212C44.7971 212 53.6012 206.656 58.4701 198.649L60.1789 199.688ZM34.7457 214C18.3176 214 5.00011 200.682 5.00011 184.254H7.00011C7.00011 199.578 19.4222 212 34.7457 212V214ZM5.00011 184.254C5.00011 167.826 18.3176 154.509 34.7457 154.509V156.509C19.4222 156.509 7.00011 168.931 7.00011 184.254H5.00011ZM34.7457 154.509C47.4798 154.509 58.3426 162.51 62.5854 173.756L60.7142 174.462C56.7554 163.969 46.6205 156.509 34.7457 156.509V154.509ZM61.6498 173.109H88.8707V175.109H61.6498V173.109ZM88.8707 173.109C92.1845 173.109 94.8707 170.423 94.8707 167.109H96.8707C96.8707 171.528 93.289 175.109 88.8707 175.109V173.109ZM94.8707 167.109V122.134H96.8707V167.109H94.8707ZM94.8707 122.134V120.331H96.8707V122.134H94.8707ZM95.6755 119.331H95.8707V121.331H95.6755V119.331ZM96.3156 119.563L96.3157 119.563L95.0353 121.1L95.0352 121.1L96.3156 119.563ZM96.6754 95.2129V120.331H94.6754V95.2129H96.6754ZM96.6754 50.1151V95.2129H94.6754V50.1151H96.6754ZM88.6754 42.1151C93.0937 42.1151 96.6754 45.6968 96.6754 50.1151H94.6754C94.6754 46.8014 91.9891 44.1151 88.6754 44.1151V42.1151ZM59.6475 42.1151H88.6754V44.1151H59.6475V42.1151ZM60.5132 43.6157C55.372 52.5059 45.7584 58.4911 34.7457 58.4911V56.4911C45.0155 56.4911 53.9834 50.912 58.7818 42.6145L60.5132 43.6157ZM34.7457 58.4911C18.3176 58.4911 5.00011 45.1736 5.00011 28.7456H7.00011C7.00011 44.069 19.4222 56.4911 34.7457 56.4911V58.4911ZM5.00011 28.7456C5.00011 12.3175 18.3176 -1 34.7457 -1V1C19.4222 1 7.00011 13.4221 7.00011 28.7456H5.00011ZM34.7457 -1C47.2427 -1 57.9374 6.70636 62.3415 17.6224L60.4867 18.3707C56.3774 8.18507 46.3994 1 34.7457 1V-1Z" fill="black" mask="url(#path-2-inside-1_461_133)"/>
<defs>
<linearGradient id="paint0_linear_461_133" x1="86.2369" y1="6" x2="86.2369" y2="219" gradientUnits="userSpaceOnUse">
<stop stop-color="#C4F5CF"/>
<stop offset="1" stop-color="#268F9C"/>
</linearGradient>
</defs>
</svg>
