<svg width="128" height="173" viewBox="0 0 128 173" fill="none" xmlns="http://www.w3.org/2000/svg">
<path fill-rule="evenodd" clip-rule="evenodd" d="M99.0958 93.1517C103.529 85.4144 106.064 76.4496 106.064 66.8928C106.064 37.6809 82.383 14 53.1711 14C23.9592 14 0.27832 37.6809 0.27832 66.8928C0.27832 76.4496 2.81287 85.4144 7.24645 93.1517C2.81287 100.889 0.27832 109.854 0.27832 119.411C0.27832 148.622 23.9592 172.303 53.1711 172.303C82.383 172.303 106.064 148.622 106.064 119.411C106.064 109.854 103.529 100.889 99.0958 93.1517Z" fill="url(#paint0_linear_461_103)"/>
<mask id="path-2-inside-1_461_103" fill="white">
<path fill-rule="evenodd" clip-rule="evenodd" d="M120.818 79.1517C125.251 71.4144 127.786 62.4496 127.786 52.8928C127.786 23.6809 104.105 0 74.8928 0C45.6809 0 22 23.6809 22 52.8928C22 62.4496 24.5345 71.4144 28.9681 79.1517C24.5345 86.889 22 95.8538 22 105.411C22 134.622 45.6809 158.303 74.8928 158.303C104.105 158.303 127.786 134.622 127.786 105.411C127.786 95.8538 125.251 86.889 120.818 79.1517Z"/>
</mask>
<path d="M120.818 79.1517L119.95 78.6545L119.665 79.1517L119.95 79.6488L120.818 79.1517ZM28.9681 79.1517L29.8358 79.6488L30.1207 79.1517L29.8358 78.6545L28.9681 79.1517ZM126.786 52.8928C126.786 62.2706 124.299 71.0645 119.95 78.6545L121.685 79.6488C126.203 71.7642 128.786 62.6286 128.786 52.8928H126.786ZM74.8928 1C103.552 1 126.786 24.2332 126.786 52.8928H128.786C128.786 23.1286 104.657 -1 74.8928 -1V1ZM23 52.8928C23 24.2332 46.2332 1 74.8928 1V-1C45.1286 -1 21 23.1286 21 52.8928H23ZM29.8358 78.6545C25.4866 71.0645 23 62.2706 23 52.8928H21C21 62.6286 23.5825 71.7642 28.1005 79.6488L29.8358 78.6545ZM23 105.411C23 96.0328 25.4866 87.2388 29.8358 79.6488L28.1005 78.6545C23.5825 86.5391 21 95.6747 21 105.411H23ZM74.8928 157.303C46.2332 157.303 23 134.07 23 105.411H21C21 135.175 45.1286 159.303 74.8928 159.303V157.303ZM126.786 105.411C126.786 134.07 103.552 157.303 74.8928 157.303V159.303C104.657 159.303 128.786 135.175 128.786 105.411H126.786ZM119.95 79.6488C124.299 87.2388 126.786 96.0328 126.786 105.411H128.786C128.786 95.6747 126.203 86.5391 121.685 78.6545L119.95 79.6488Z" fill="black" mask="url(#path-2-inside-1_461_103)"/>
<defs>
<linearGradient id="paint0_linear_461_103" x1="53.1711" y1="14" x2="53.1711" y2="172.303" gradientUnits="userSpaceOnUse">
<stop stop-color="#C4F5CF"/>
<stop offset="1" stop-color="#268F9C"/>
</linearGradient>
</defs>
</svg>
