<svg width="165" height="229" viewBox="0 0 165 229" fill="none" xmlns="http://www.w3.org/2000/svg">
<path fill-rule="evenodd" clip-rule="evenodd" d="M127.868 100.409C133.379 91.19 136.546 80.4087 136.546 68.8878C136.546 34.9108 109.002 7.36707 75.0253 7.36707C41.0483 7.36707 13.5045 34.9108 13.5045 68.8878C13.5045 80.4087 16.6714 91.19 22.1821 100.409C8.48319 114.002 0 132.843 0 153.666C0 195.102 33.59 228.692 75.0253 228.692C116.461 228.692 150.051 195.102 150.051 153.666C150.051 132.843 141.567 114.002 127.868 100.409Z" fill="url(#paint0_linear_461_117)"/>
<mask id="path-2-inside-1_461_117" fill="white">
<path fill-rule="evenodd" clip-rule="evenodd" d="M141.868 93.0415C147.379 83.8229 150.546 73.0416 150.546 61.5207C150.546 27.5438 123.002 0 89.0253 0C55.0483 0 27.5045 27.5438 27.5045 61.5207C27.5045 73.0416 30.6714 83.8229 36.1821 93.0415C22.4832 106.634 14 125.476 14 146.299C14 187.735 47.59 221.325 89.0253 221.325C130.461 221.325 164.051 187.735 164.051 146.299C164.051 125.476 155.567 106.634 141.868 93.0415Z"/>
</mask>
<path d="M141.868 93.0415L141.01 92.5284L140.609 93.2001L141.164 93.7514L141.868 93.0415ZM36.1821 93.0415L36.8865 93.7514L37.442 93.2001L37.0404 92.5284L36.1821 93.0415ZM149.546 61.5207C149.546 72.856 146.431 83.4606 141.01 92.5284L142.727 93.5546C148.328 84.1852 151.546 73.2273 151.546 61.5207H149.546ZM89.0253 1C122.45 1 149.546 28.0961 149.546 61.5207H151.546C151.546 26.9915 123.555 -1 89.0253 -1V1ZM28.5045 61.5207C28.5045 28.0961 55.6006 1 89.0253 1V-1C54.496 -1 26.5045 26.9915 26.5045 61.5207H28.5045ZM37.0404 92.5284C31.6199 83.4606 28.5045 72.856 28.5045 61.5207H26.5045C26.5045 73.2273 29.7229 84.1852 35.3238 93.5546L37.0404 92.5284ZM15 146.299C15 125.753 23.369 107.164 36.8865 93.7514L35.4778 92.3317C21.5974 106.105 13 125.199 13 146.299H15ZM89.0253 220.325C48.1422 220.325 15 187.182 15 146.299H13C13 188.287 47.0377 222.325 89.0253 222.325V220.325ZM163.051 146.299C163.051 187.182 129.908 220.325 89.0253 220.325V222.325C131.013 222.325 165.051 188.287 165.051 146.299H163.051ZM141.164 93.7514C154.682 107.164 163.051 125.753 163.051 146.299H165.051C165.051 125.199 156.453 106.105 142.573 92.3317L141.164 93.7514Z" fill="black" mask="url(#path-2-inside-1_461_117)"/>
<defs>
<linearGradient id="paint0_linear_461_117" x1="75.0253" y1="7.36707" x2="75.0253" y2="228.692" gradientUnits="userSpaceOnUse">
<stop stop-color="#C4F5CF"/>
<stop offset="1" stop-color="#268F9C"/>
</linearGradient>
</defs>
</svg>
