<svg width="150" height="147" viewBox="0 0 150 147" fill="none" xmlns="http://www.w3.org/2000/svg">
<path fill-rule="evenodd" clip-rule="evenodd" d="M71 147C110.212 147 142 115.212 142 76C142 36.7878 110.212 5 71 5C31.7878 5 0 36.7878 0 76C0 115.212 31.7878 147 71 147ZM103 126C121.778 126 137 110.778 137 92C137 73.2223 121.778 58 103 58C84.2223 58 69 73.2223 69 92C69 110.778 84.2223 126 103 126Z" fill="url(#paint0_linear_464_210)"/>
<mask id="path-2-inside-1_464_210" fill="white">
<path fill-rule="evenodd" clip-rule="evenodd" d="M79 142C118.212 142 150 110.212 150 71C150 31.7878 118.212 0 79 0C39.7878 0 8 31.7878 8 71C8 110.212 39.7878 142 79 142ZM111 121C129.778 121 145 105.778 145 87C145 68.2223 129.778 53 111 53C92.2223 53 77 68.2223 77 87C77 105.778 92.2223 121 111 121Z"/>
</mask>
<path d="M149 71C149 109.66 117.66 141 79 141V143C118.765 143 151 110.765 151 71H149ZM79 1C117.66 1 149 32.3401 149 71H151C151 31.2355 118.765 -1 79 -1V1ZM9 71C9 32.3401 40.3401 1 79 1V-1C39.2355 -1 7 31.2355 7 71H9ZM79 141C40.3401 141 9 109.66 9 71H7C7 110.765 39.2355 143 79 143V141ZM144 87C144 105.225 129.225 120 111 120V122C130.33 122 146 106.33 146 87H144ZM111 54C129.225 54 144 68.7746 144 87H146C146 67.67 130.33 52 111 52V54ZM78 87C78 68.7746 92.7746 54 111 54V52C91.67 52 76 67.67 76 87H78ZM111 120C92.7746 120 78 105.225 78 87H76C76 106.33 91.67 122 111 122V120Z" fill="black" mask="url(#path-2-inside-1_464_210)"/>
<defs>
<linearGradient id="paint0_linear_464_210" x1="71" y1="5" x2="71" y2="147" gradientUnits="userSpaceOnUse">
<stop stop-color="#C4F5CF"/>
<stop offset="1" stop-color="#268F9C"/>
</linearGradient>
</defs>
</svg>
