<svg width="424" height="507" viewBox="0 0 424 507" fill="none" xmlns="http://www.w3.org/2000/svg">
<rect x="69" y="48" width="228" height="375" rx="38" fill="url(#paint0_linear_547_2)"/>
<rect x="81.5" y="61.5" width="203" height="353" rx="26.5" stroke="white"/>
<rect x="84" y="42.9998" width="222" height="369" rx="35" stroke="black" stroke-width="6"/>
<path fill-rule="evenodd" clip-rule="evenodd" d="M279.991 392.811L244.431 284.972L289.985 299.129C361.165 231.12 363.444 176.512 289.797 139C400.646 184.343 364.67 270.486 330.155 311.614L367.772 323.305L279.991 392.811Z" fill="url(#paint1_linear_547_2)"/>
<path d="M254.939 270.972L252.09 271.912L250.265 266.378L255.829 268.108L254.939 270.972ZM290.499 378.811L292.361 381.163L288.994 383.829L287.65 379.751L290.499 378.811ZM300.492 285.13L302.565 287.299L301.288 288.519L299.602 287.995L300.492 285.13ZM300.305 125L298.943 127.673L301.441 122.223L300.305 125ZM340.663 297.614L339.772 300.479L335.465 299.141L338.365 295.686L340.663 297.614ZM378.28 309.305L379.17 306.44L384.599 308.128L380.142 311.657L378.28 309.305ZM257.788 270.033L293.348 377.872L287.65 379.751L252.09 271.912L257.788 270.033ZM299.602 287.995L254.048 273.837L255.829 268.108L301.383 282.265L299.602 287.995ZM298.42 282.961C333.883 249.077 351.46 219.165 351.709 193.599C351.954 168.414 335.315 146.2 298.943 127.673L301.666 122.327C338.941 141.313 357.986 165.159 357.709 193.658C357.435 221.777 338.282 253.173 302.565 287.299L298.42 282.961ZM301.441 122.223C329.504 133.703 348.523 147.866 360.602 163.481C372.704 179.126 377.711 196.068 377.995 212.837C378.56 246.205 360.444 278.709 342.961 299.543L338.365 295.686C355.396 275.391 372.526 244.26 371.996 212.939C371.732 197.362 367.106 181.696 355.856 167.152C344.582 152.577 326.531 138.969 299.169 127.777L301.441 122.223ZM377.389 312.17L339.772 300.479L341.553 294.75L379.17 306.44L377.389 312.17ZM288.636 376.459L376.417 306.953L380.142 311.657L292.361 381.163L288.636 376.459Z" fill="black"/>
<path fill-rule="evenodd" clip-rule="evenodd" d="M46.8461 283.659L158.052 306.615L123.063 339.04C146.515 434.653 192.711 463.861 261.954 418.733C167.372 492.202 110.646 418.06 92.2093 367.633L63.3165 394.408L46.8461 283.659Z" fill="url(#paint2_linear_547_2)"/>
<path d="M168.56 292.616L169.166 289.678L174.872 290.856L170.599 294.816L168.56 292.616ZM57.3537 269.659L54.3863 270.101L53.7546 265.853L57.9602 266.721L57.3537 269.659ZM133.571 325.04L130.657 325.755L130.237 324.04L131.532 322.84L133.571 325.04ZM272.461 404.734L270.823 402.22L274.302 407.103L272.461 404.734ZM102.717 353.633L100.678 351.433L103.986 348.367L105.534 352.603L102.717 353.633ZM73.824 380.409L75.8632 382.609L71.693 386.474L70.8566 380.85L73.824 380.409ZM167.953 295.554L56.7472 272.597L57.9602 266.721L169.166 289.678L167.953 295.554ZM131.532 322.84L166.52 290.415L170.599 294.816L135.61 327.241L131.532 322.84ZM136.484 324.326C148.169 371.962 165.33 402.114 187.366 415.08C209.074 427.852 236.627 424.508 270.823 402.22L274.099 407.247C239.054 430.088 208.887 434.704 184.323 420.251C160.087 405.991 142.425 373.732 130.657 325.755L136.484 324.326ZM274.302 407.103C250.357 425.703 228.596 435.125 209.037 437.807C189.441 440.495 172.259 436.386 157.583 428.27C128.378 412.119 109.238 380.207 99.8992 354.663L105.534 352.603C114.632 377.486 133.073 407.859 160.486 423.019C174.119 430.558 190.005 434.361 208.222 431.863C226.477 429.36 247.275 420.499 270.621 402.364L274.302 407.103ZM71.7849 378.208L100.678 351.433L104.756 355.834L75.8632 382.609L71.7849 378.208ZM60.321 269.218L76.7914 379.967L70.8566 380.85L54.3863 270.101L60.321 269.218Z" fill="black"/>
<path fill-rule="evenodd" clip-rule="evenodd" d="M268.285 75.0439L196.08 162.681L183.734 116.603C88.2272 92.7194 40.8346 119.944 48.4294 202.244C27.5963 84.3056 119.644 68.741 172.846 75.9711L162.651 37.9213L268.285 75.0439Z" fill="url(#paint3_linear_547_2)"/>
<path d="M206.588 148.681L208.903 150.589L205.198 155.086L203.69 149.458L206.588 148.681ZM278.793 61.0445L279.787 58.2142L283.839 59.638L281.108 62.9522L278.793 61.0445ZM194.241 102.604L194.969 99.6937L196.682 100.122L197.139 101.828L194.241 102.604ZM58.9371 188.245L61.9244 187.969L55.9829 188.767L58.9371 188.245ZM183.354 61.9718L186.252 61.1954L187.419 65.5518L182.95 64.9445L183.354 61.9718ZM173.159 23.922L170.261 24.6985L168.789 19.2067L174.153 21.0917L173.159 23.922ZM204.272 146.774L276.477 59.1369L281.108 62.9522L208.903 150.589L204.272 146.774ZM197.139 101.828L209.485 147.905L203.69 149.458L191.344 103.381L197.139 101.828ZM193.514 105.514C145.931 93.6151 111.254 94.7204 89.503 108.157C68.0755 121.395 58.1736 147.323 61.9244 187.969L55.9498 188.521C52.1058 146.866 62.1028 118.032 86.3495 103.053C110.273 88.2739 147.046 87.7091 194.969 99.6937L193.514 105.514ZM55.9829 188.767C50.7087 158.909 52.5316 135.265 59.2878 116.716C66.0571 98.1307 77.7101 84.8525 91.7379 75.6608C119.652 57.3703 156.808 55.3367 183.758 58.9992L182.95 64.9445C156.697 61.3768 121.228 63.5105 95.0264 80.6794C81.9962 89.2174 71.2184 101.492 64.9255 118.769C58.6196 136.083 56.749 158.612 61.8914 187.723L55.9829 188.767ZM176.056 23.1456L186.252 61.1954L180.456 62.7483L170.261 24.6985L176.056 23.1456ZM277.798 63.8748L172.164 26.7523L174.153 21.0917L279.787 58.2142L277.798 63.8748Z" fill="black"/>
<defs>
<linearGradient id="paint0_linear_547_2" x1="183" y1="48" x2="183" y2="423" gradientUnits="userSpaceOnUse">
<stop stop-color="#D8FFE1"/>
<stop offset="1" stop-color="#72C785"/>
</linearGradient>
<linearGradient id="paint1_linear_547_2" x1="278.671" y1="392.401" x2="351.468" y2="158.166" gradientUnits="userSpaceOnUse">
<stop offset="0.227846" stop-color="#1E8235"/>
<stop offset="0.805679" stop-color="#63CF7C"/>
</linearGradient>
<linearGradient id="paint2_linear_547_2" x1="47.8603" y1="282.719" x2="214.586" y2="462.63" gradientUnits="userSpaceOnUse">
<stop offset="0.17396" stop-color="#63CF7C"/>
<stop offset="1" stop-color="#1E8235"/>
</linearGradient>
<linearGradient id="paint3_linear_547_2" x1="197" y1="54.9998" x2="31.7148" y2="139.864" gradientUnits="userSpaceOnUse">
<stop stop-color="#63CF7C"/>
<stop offset="1" stop-color="#1E8235"/>
</linearGradient>
</defs>
</svg>
