<?xml version="1.0" encoding="UTF-8"?>
<svg id="Calque_1" data-name="Calque 1" xmlns="http://www.w3.org/2000/svg" viewBox="0 0 695 389">
  <defs>
    <style>
      .cls-1 {
        fill: #4ce78d;
      }

      .cls-2 {
        fill: none;
        stroke: #000;
        stroke-linecap: round;
        stroke-linejoin: round;
        stroke-width: 2px;
      }
    </style>
  </defs>
  <g>
    <path class="cls-1" d="M678.37,355.03V188.21c-84.69,0-153.33-68.64-153.33-153.33H56.48s0,320.15,0,320.15H678.37Z"/>
    <path class="cls-2" d="M637.9,341.53V174.71c-84.69,0-153.33-68.64-153.33-153.33H16s0,320.15,0,320.15H637.9Z"/>
  </g>
  <g>
    <path d="M194.7,182.8h4.35v22.55c0,8.95-4.4,11.7-10.2,11.7-1.6,0-3.55-.35-4.65-.8l.65-3.55c.9,.35,2.2,.65,3.65,.65,3.9,0,6.2-1.75,6.2-8.35v-22.2Z"/>
    <path d="M208.6,205.2c.1,5.95,3.9,8.4,8.3,8.4,3.15,0,5.05-.55,6.7-1.25l.75,3.15c-1.55,.7-4.2,1.5-8.05,1.5-7.45,0-11.9-4.9-11.9-12.2s4.3-13.05,11.35-13.05c7.9,0,10,6.95,10,11.4,0,.9-.1,1.6-.15,2.05h-17Zm12.9-3.15c.05-2.8-1.15-7.15-6.1-7.15-4.45,0-6.4,4.1-6.75,7.15h12.85Z"/>
    <path d="M241.8,181h4.4v35.5h-4.4v-35.5Z"/>
    <path d="M256.05,205.2c.1,5.95,3.9,8.4,8.3,8.4,3.15,0,5.05-.55,6.7-1.25l.75,3.15c-1.55,.7-4.2,1.5-8.05,1.5-7.45,0-11.9-4.9-11.9-12.2s4.3-13.05,11.35-13.05c7.9,0,10,6.95,10,11.4,0,.9-.1,1.6-.15,2.05h-17Zm12.9-3.15c.05-2.8-1.15-7.15-6.1-7.15-4.45,0-6.4,4.1-6.75,7.15h12.85Z"/>
    <path d="M278.05,212c1.3,.85,3.6,1.75,5.8,1.75,3.2,0,4.7-1.6,4.7-3.6,0-2.1-1.25-3.25-4.5-4.45-4.35-1.55-6.4-3.95-6.4-6.85,0-3.9,3.15-7.1,8.35-7.1,2.45,0,4.6,.7,5.95,1.5l-1.1,3.2c-.95-.6-2.7-1.4-4.95-1.4-2.6,0-4.05,1.5-4.05,3.3,0,2,1.45,2.9,4.6,4.1,4.2,1.6,6.35,3.7,6.35,7.3,0,4.25-3.3,7.25-9.05,7.25-2.65,0-5.1-.65-6.8-1.65l1.1-3.35Z"/>
    <path d="M303.15,223.5c2-.15,3.75-.7,4.8-1.85,1.2-1.4,1.65-3.3,1.65-9.1v-20.25h4.4v21.95c0,4.7-.75,7.75-2.9,9.95-1.95,1.95-5.15,2.75-7.5,2.75l-.45-3.45Zm11.35-38c.05,1.45-1,2.7-2.75,2.7-1.65,0-2.7-1.25-2.7-2.7,0-1.55,1.15-2.75,2.8-2.75s2.65,1.2,2.65,2.75Z"/>
    <path d="M323.65,205.2c.1,5.95,3.9,8.4,8.3,8.4,3.15,0,5.05-.55,6.7-1.25l.75,3.15c-1.55,.7-4.2,1.5-8.05,1.5-7.45,0-11.9-4.9-11.9-12.2s4.3-13.05,11.35-13.05c7.9,0,10,6.95,10,11.4,0,.9-.1,1.6-.15,2.05h-17Zm12.9-3.15c.05-2.8-1.15-7.15-6.1-7.15-4.45,0-6.4,4.1-6.75,7.15h12.85Z"/>
    <path d="M351.55,185.35v6.95h6.3v3.35h-6.3v13.05c0,3,.85,4.7,3.3,4.7,1.15,0,2-.15,2.55-.3l.2,3.3c-.85,.35-2.2,.6-3.9,.6-2.05,0-3.7-.65-4.75-1.85-1.25-1.3-1.7-3.45-1.7-6.3v-13.2h-3.75v-3.35h3.75v-5.8l4.3-1.15Z"/>
    <path d="M368.1,185.35v6.95h6.3v3.35h-6.3v13.05c0,3,.85,4.7,3.3,4.7,1.15,0,2-.15,2.55-.3l.2,3.3c-.85,.35-2.2,.6-3.9,.6-2.05,0-3.7-.65-4.75-1.85-1.25-1.3-1.7-3.45-1.7-6.3v-13.2h-3.75v-3.35h3.75v-5.8l4.3-1.15Z"/>
    <path d="M381.5,205.2c.1,5.95,3.9,8.4,8.3,8.4,3.15,0,5.05-.55,6.7-1.25l.75,3.15c-1.55,.7-4.2,1.5-8.05,1.5-7.45,0-11.9-4.9-11.9-12.2s4.3-13.05,11.35-13.05c7.9,0,10,6.95,10,11.4,0,.9-.1,1.6-.15,2.05h-17Zm12.9-3.15c.05-2.8-1.15-7.15-6.1-7.15-4.45,0-6.4,4.1-6.75,7.15h12.85Z"/>
    <path d="M403.5,212c1.3,.85,3.6,1.75,5.8,1.75,3.2,0,4.7-1.6,4.7-3.6,0-2.1-1.25-3.25-4.5-4.45-4.35-1.55-6.4-3.95-6.4-6.85,0-3.9,3.15-7.1,8.35-7.1,2.45,0,4.6,.7,5.95,1.5l-1.1,3.2c-.95-.6-2.7-1.4-4.95-1.4-2.6,0-4.05,1.5-4.05,3.3,0,2,1.45,2.9,4.6,4.1,4.2,1.6,6.35,3.7,6.35,7.3,0,4.25-3.3,7.25-9.05,7.25-2.65,0-5.1-.65-6.8-1.65l1.1-3.35Z"/>
  </g>
</svg>