<?xml version="1.0" encoding="UTF-8"?>
<svg id="Calque_1" data-name="Calque 1" xmlns="http://www.w3.org/2000/svg" viewBox="0 0 695 389">
  <defs>
    <style>
      .cls-1 {
        fill: #dbffe2;
      }

      .cls-2 {
        fill: none;
        stroke: #000;
        stroke-linecap: round;
        stroke-linejoin: round;
        stroke-width: 2px;
      }
    </style>
  </defs>
  <path class="cls-1" d="M46.1,20V186.82c84.69,0,153.33,68.64,153.33,153.33h468.57s0-320.15,0-320.15H46.1Z"/>
  <path class="cls-2" d="M26.48,40.85V207.67c84.69,0,153.33,68.64,153.33,153.33h468.57s0-320.15,0-320.15H26.48Z"/>
  <g>
    <path d="M271.7,165.8h4.35v22.55c0,8.95-4.4,11.7-10.2,11.7-1.6,0-3.55-.35-4.65-.8l.65-3.55c.9,.35,2.2,.65,3.65,.65,3.9,0,6.2-1.75,6.2-8.35v-22.2Z"/>
    <path d="M285.6,188.2c.1,5.95,3.9,8.4,8.3,8.4,3.15,0,5.05-.55,6.7-1.25l.75,3.15c-1.55,.7-4.2,1.5-8.05,1.5-7.45,0-11.9-4.9-11.9-12.2s4.3-13.05,11.35-13.05c7.9,0,10,6.95,10,11.4,0,.9-.1,1.6-.15,2.05h-17Zm12.9-3.15c.05-2.8-1.15-7.15-6.1-7.15-4.45,0-6.4,4.1-6.75,7.15h12.85Z"/>
    <path d="M318.8,164h4.4v35.5h-4.4v-35.5Z"/>
    <path d="M333.05,188.2c.1,5.95,3.9,8.4,8.3,8.4,3.15,0,5.05-.55,6.7-1.25l.75,3.15c-1.55,.7-4.2,1.5-8.05,1.5-7.45,0-11.9-4.9-11.9-12.2s4.3-13.05,11.35-13.05c7.9,0,10,6.95,10,11.4,0,.9-.1,1.6-.15,2.05h-17Zm12.9-3.15c.05-2.8-1.15-7.15-6.1-7.15-4.45,0-6.4,4.1-6.75,7.15h12.85Z"/>
    <path d="M355.05,195c1.3,.85,3.6,1.75,5.8,1.75,3.2,0,4.7-1.6,4.7-3.6,0-2.1-1.25-3.25-4.5-4.45-4.35-1.55-6.4-3.95-6.4-6.85,0-3.9,3.15-7.1,8.35-7.1,2.45,0,4.6,.7,5.95,1.5l-1.1,3.2c-.95-.6-2.7-1.4-4.95-1.4-2.6,0-4.05,1.5-4.05,3.3,0,2,1.45,2.9,4.6,4.1,4.2,1.6,6.35,3.7,6.35,7.3,0,4.25-3.3,7.25-9.05,7.25-2.65,0-5.1-.65-6.8-1.65l1.1-3.35Z"/>
    <path d="M406.95,164v29.25c0,2.15,.05,4.6,.2,6.25h-3.95l-.2-4.2h-.1c-1.35,2.7-4.3,4.75-8.25,4.75-5.85,0-10.35-4.95-10.35-12.3-.05-8.05,4.95-13,10.85-13,3.7,0,6.2,1.75,7.3,3.7h.1v-14.45h4.4Zm-4.4,21.15c0-.55-.05-1.3-.2-1.85-.65-2.8-3.05-5.1-6.35-5.1-4.55,0-7.25,4-7.25,9.35,0,4.9,2.4,8.95,7.15,8.95,2.95,0,5.65-1.95,6.45-5.25,.15-.6,.2-1.2,.2-1.9v-4.2Z"/>
    <path d="M436.15,187.2c0,8.95-6.2,12.85-12.05,12.85-6.55,0-11.6-4.8-11.6-12.45,0-8.1,5.3-12.85,12-12.85s11.65,5.05,11.65,12.45Zm-19.2,.25c0,5.3,3.05,9.3,7.35,9.3s7.35-3.95,7.35-9.4c0-4.1-2.05-9.3-7.25-9.3s-7.45,4.8-7.45,9.4Z"/>
    <path d="M441.7,181.85c0-2.5-.05-4.55-.2-6.55h3.9l.25,4h.1c1.2-2.3,4-4.55,8-4.55,3.35,0,8.55,2,8.55,10.3v14.45h-4.4v-13.95c0-3.9-1.45-7.15-5.6-7.15-2.9,0-5.15,2.05-5.9,4.5-.2,.55-.3,1.3-.3,2.05v14.55h-4.4v-17.65Z"/>
    <path d="M469.45,181.85c0-2.5-.05-4.55-.2-6.55h3.9l.25,4h.1c1.2-2.3,4-4.55,8-4.55,3.35,0,8.55,2,8.55,10.3v14.45h-4.4v-13.95c0-3.9-1.45-7.15-5.6-7.15-2.9,0-5.15,2.05-5.9,4.5-.2,.55-.3,1.3-.3,2.05v14.55h-4.4v-17.65Z"/>
    <path d="M499.65,188.2c.1,5.95,3.9,8.4,8.3,8.4,3.15,0,5.05-.55,6.7-1.25l.75,3.15c-1.55,.7-4.2,1.5-8.05,1.5-7.45,0-11.9-4.9-11.9-12.2s4.3-13.05,11.35-13.05c7.9,0,10,6.95,10,11.4,0,.9-.1,1.6-.15,2.05h-17Zm12.9-3.15c.05-2.8-1.15-7.15-6.1-7.15-4.45,0-6.4,4.1-6.75,7.15h12.85Z"/>
    <path d="M521.65,195c1.3,.85,3.6,1.75,5.8,1.75,3.2,0,4.7-1.6,4.7-3.6,0-2.1-1.25-3.25-4.5-4.45-4.35-1.55-6.4-3.95-6.4-6.85,0-3.9,3.15-7.1,8.35-7.1,2.45,0,4.6,.7,5.95,1.5l-1.1,3.2c-.95-.6-2.7-1.4-4.95-1.4-2.6,0-4.05,1.5-4.05,3.3,0,2,1.45,2.9,4.6,4.1,4.2,1.6,6.35,3.7,6.35,7.3,0,4.25-3.3,7.25-9.05,7.25-2.65,0-5.1-.65-6.8-1.65l1.1-3.35Z"/>
  </g>
</svg>